<?xml version="1.0" standalone="no"?>
<!DOCTYPE svg PUBLIC "-//W3C//DTD SVG 20010904//EN"
 "http://www.w3.org/TR/2001/REC-SVG-20010904/DTD/svg10.dtd">
<svg version="1.0" xmlns="http://www.w3.org/2000/svg"
 width="640.000000pt" height="640.000000pt" viewBox="0 0 640.000000 640.000000"
 preserveAspectRatio="xMidYMid meet">

<g transform="translate(0.000000,640.000000) scale(0.100000,-0.100000)"
fill="#000000" stroke="none">
<path d="M3178 6013 c-27 -4 -28 -7 -28 -62 0 -32 3 -86 6 -120 l7 -61 78 0
c48 0 81 4 85 12 5 8 -13 10 -69 5 l-77 -5 0 54 0 54 60 0 c33 0 60 4 60 9 0
5 -28 9 -62 8 l-63 -2 -3 48 -3 47 70 0 c41 0 71 4 71 10 0 10 -76 11 -132 3z"/>
<path d="M2797 5969 c-27 -4 -51 -10 -54 -13 -6 -6 28 -212 39 -228 5 -10 20
-10 64 0 67 14 90 32 106 83 9 32 8 46 -6 83 -9 24 -23 49 -31 56 -23 19 -68
26 -118 19z m110 -44 c27 -31 39 -89 25 -120 -15 -32 -53 -56 -100 -62 l-39
-5 -12 78 c-7 44 -15 91 -18 106 -5 25 -2 27 33 31 58 6 87 -1 111 -28z"/>
<path d="M3938 5867 c-14 -11 -3 -18 85 -46 569 -186 1068 -569 1415 -1087
201 -300 347 -686 412 -1081 9 -54 16 -73 27 -73 13 0 15 10 9 63 -16 152 -89
428 -161 607 -260 646 -714 1140 -1340 1455 -132 67 -397 176 -423 175 -4 0
-15 -6 -24 -13z"/>
<path d="M2161 5774 c-55 -46 -50 -138 10 -189 71 -59 179 -9 179 83 0 111
-110 173 -189 106z m147 -29 c45 -52 20 -153 -43 -169 -40 -10 -94 18 -110 58
-18 43 -19 67 -3 102 26 57 109 62 156 9z"/>
<path d="M1890 5649 c0 -18 102 -209 112 -209 12 0 13 -3 -48 113 -54 104 -64
119 -64 96z"/>
<path d="M1645 5506 c-43 -19 -66 -49 -72 -93 -6 -49 27 -100 81 -127 51 -25
108 -10 136 37 21 35 26 67 10 67 -5 0 -10 -9 -10 -21 0 -29 -53 -79 -85 -79
-91 0 -148 110 -91 177 19 22 32 28 65 28 23 0 41 3 41 7 0 5 -4 8 -9 8 -5 0
-15 2 -23 5 -7 2 -26 -2 -43 -9z"/>
<path d="M1350 5295 c0 -6 102 -133 152 -189 5 -6 8 -4 8 5 0 7 -32 52 -71 99
-66 80 -89 101 -89 85z"/>
<path d="M1190 5145 c0 -8 19 -58 41 -110 23 -53 39 -99 36 -102 -3 -3 -51 13
-106 36 -99 41 -134 50 -115 32 13 -14 245 -103 251 -97 5 5 -96 256 -103 256
-2 0 -4 -7 -4 -15z"/>
<path d="M856 4777 c-19 -23 -36 -47 -38 -54 -3 -13 182 -156 191 -147 3 3
-10 18 -29 34 l-35 29 21 28 c19 25 28 28 77 28 30 0 59 3 63 8 4 4 -8 7 -27
7 -60 0 -76 9 -76 41 0 42 -29 69 -74 69 -32 0 -43 -6 -73 -43z m110 10 c32
-28 29 -58 -12 -106 l-26 -31 -44 32 c-24 17 -44 36 -44 42 0 17 67 86 84 86
8 0 27 -10 42 -23z"/>
<path d="M1930 4685 c0 -19 7 -26 28 -31 91 -20 124 -41 154 -97 21 -39 23
-60 29 -287 7 -269 15 -311 74 -435 83 -173 232 -296 455 -376 l75 -27 0 -488
0 -489 -107 -3 -108 -3 0 -29 c0 -21 5 -30 18 -32 9 0 22 -2 27 -3 6 -2 186
-4 400 -5 348 -3 378 -4 275 -13 -122 -11 -229 -13 -320 -5 -55 5 -55 5 -21
-9 114 -48 434 -46 609 4 47 13 95 13 440 -1 390 -16 529 -19 521 -12 -7 7
-218 17 -527 25 -166 5 -305 11 -309 15 -3 3 28 6 69 6 60 0 77 3 82 16 3 9 3
21 0 26 -5 7 2 9 17 5 78 -20 146 -27 339 -37 187 -9 303 -19 439 -35 19 -3
39 -10 45 -16 8 -9 1 -10 -29 -6 -22 4 -46 3 -52 -1 -7 -4 117 -14 275 -20
259 -12 288 -11 298 3 19 26 5 54 -30 60 -17 3 -204 12 -416 20 -441 17 -770
33 -850 40 -30 3 -110 10 -177 15 -137 10 -185 28 -228 84 -38 50 -43 108 -45
465 l-1 321 68 0 c181 0 448 39 590 86 159 53 259 121 332 227 136 198 135
565 -3 767 l-46 67 16 47 c26 76 68 108 167 130 20 5 27 12 27 31 0 23 -4 25
-47 25 -109 -1 -226 -40 -304 -101 l-37 -29 -58 21 c-33 11 -102 30 -154 41
-90 20 -129 22 -742 25 l-648 4 0 -25 0 -26 105 0 105 0 0 -515 c0 -440 -2
-515 -14 -515 -8 0 -44 29 -79 63 -118 116 -179 280 -198 527 -6 74 -19 165
-30 201 -23 78 -81 173 -135 218 -80 66 -210 111 -321 111 -39 0 -43 -2 -43
-25z m1706 -99 c124 -58 164 -192 164 -551 0 -189 -12 -328 -33 -392 -10 -33
-21 -43 -77 -71 -73 -36 -178 -62 -258 -62 l-54 0 4 483 3 482 27 46 c52 89
127 110 224 65z"/>
<path d="M667 4493 c-13 -21 -31 -52 -40 -69 l-16 -31 101 -56 c55 -32 104
-57 108 -57 12 0 81 121 77 134 -3 9 -60 -78 -70 -108 -4 -12 -87 32 -87 47 0
6 11 30 25 52 13 22 25 44 25 49 0 18 -28 -16 -45 -54 -10 -22 -22 -40 -26
-40 -12 0 -79 41 -79 49 0 3 6 15 13 26 39 58 57 95 48 95 -6 0 -21 -17 -34
-37z"/>
<path d="M496 4159 c-36 -42 -36 -102 -1 -125 36 -23 66 -12 104 40 39 51 55
60 82 46 35 -19 15 -100 -33 -134 -12 -9 -19 -19 -15 -23 13 -12 77 60 83 93
8 44 -1 69 -32 83 -32 14 -52 4 -100 -54 -20 -25 -44 -45 -53 -45 -47 0 -57
75 -16 116 27 27 30 34 16 34 -5 0 -21 -14 -35 -31z"/>
<path d="M5457 3574 c-87 -68 -112 -94 -89 -94 4 0 52 -7 107 -15 122 -18 156
-19 135 -5 -8 5 -27 10 -42 10 -31 0 -39 10 -54 65 -10 38 -9 42 19 72 54 57
24 44 -76 -33z m46 -48 c5 -20 7 -40 4 -43 -8 -7 -117 7 -117 15 1 11 84 71
95 68 5 -1 14 -19 18 -40z"/>
<path d="M447 3342 c-17 -19 -18 -33 -12 -164 20 -439 103 -772 282 -1135 139
-283 311 -519 540 -743 304 -299 640 -509 1021 -641 121 -42 152 -47 152 -26
0 7 -37 25 -87 41 -307 98 -614 264 -863 465 -114 92 -318 295 -407 406 -221
273 -409 639 -503 975 -61 223 -89 410 -99 664 -6 174 -6 178 -24 158z"/>
<path d="M5600 3245 c-8 -2 -54 -9 -102 -15 -49 -7 -88 -16 -88 -21 0 -11 -7
-11 120 6 58 8 108 15 113 15 4 0 7 5 7 10 0 10 -17 11 -50 5z"/>
<path d="M5345 3210 c3 -5 10 -10 16 -10 5 0 9 5 9 10 0 6 -7 10 -16 10 -8 0
-12 -4 -9 -10z"/>
<path d="M5550 2990 c0 -16 5 -30 10 -30 6 0 10 11 10 25 0 40 45 33 69 -12
19 -37 13 -73 -18 -104 -39 -39 -106 -41 -148 -5 -34 29 -39 92 -9 125 11 12
14 21 8 21 -19 0 -42 -43 -42 -80 0 -85 91 -134 174 -95 34 16 66 61 66 92 0
10 -7 31 -15 47 -19 35 -19 34 3 39 9 3 -11 5 -45 6 l-63 1 0 -30z"/>
<path d="M5455 2640 c-61 -25 -87 -94 -57 -149 41 -75 135 -90 194 -31 50 51
32 142 -36 174 -37 17 -69 20 -101 6z m112 -32 c9 -7 22 -28 30 -45 18 -45 -2
-94 -46 -112 -110 -46 -206 98 -107 160 34 22 95 21 123 -3z"/>
<path d="M2429 2436 c-2 -2 -218 -11 -479 -21 -586 -21 -739 -36 -300 -29 173
2 333 6 355 8 22 2 108 7 190 11 221 9 297 15 314 25 11 7 3 9 -30 10 -25 0
-48 -2 -50 -4z"/>
<path d="M2270 2364 c-19 -1 -186 -8 -370 -15 -184 -6 -357 -16 -385 -20 -74
-12 168 -5 975 30 l185 8 -185 0 c-102 0 -201 -2 -220 -3z"/>
<path d="M4498 2343 c7 -3 16 -2 19 1 4 3 -2 6 -13 5 -11 0 -14 -3 -6 -6z"/>
<path d="M5971 2260 c-7 -33 -14 -60 -15 -60 -9 0 -173 32 -188 36 -14 4 -18
0 -18 -18 0 -22 7 -25 118 -45 64 -11 118 -20 119 -19 2 2 33 156 33 164 0 1
-8 2 -19 2 -15 0 -21 -12 -30 -60z"/>
<path d="M5330 2267 c-35 -17 -65 -76 -56 -110 10 -43 56 -87 98 -94 82 -13
138 29 138 104 0 27 4 42 10 38 6 -3 10 -2 10 3 0 14 -90 46 -100 36 -4 -5
-11 -20 -15 -34 l-6 -25 19 24 c23 29 48 23 62 -14 22 -58 -21 -116 -87 -117
-65 -1 -113 44 -113 106 0 24 35 69 61 78 8 3 12 8 9 11 -3 3 -17 0 -30 -6z"/>
<path d="M5666 1944 c-3 -9 -6 -17 -6 -19 0 -11 193 -174 201 -169 16 9 10 35
-13 54 -22 18 -22 20 -8 62 14 39 18 43 51 46 27 2 38 9 42 23 5 18 -1 19
-128 19 -112 0 -134 -2 -139 -16z m149 -51 c-10 -43 -17 -44 -60 -7 l-40 34
54 0 c53 0 53 0 46 -27z"/>
<path d="M5114 1884 c13 -33 140 -207 144 -196 2 7 -6 25 -18 42 l-21 30 31
45 c31 46 32 46 76 39 27 -4 44 -2 44 4 0 5 -51 19 -113 31 -138 26 -151 26
-143 5z m109 -19 c20 -4 37 -10 37 -14 0 -3 -12 -24 -26 -45 l-26 -38 -34 51
c-40 59 -41 65 -11 58 12 -3 39 -9 60 -12z"/>
<path d="M5561 1696 c-11 -13 -3 -28 50 -91 34 -41 60 -77 58 -79 -2 -2 -46 4
-97 14 -89 16 -93 16 -102 -1 -11 -20 -12 -20 143 -44 144 -23 147 -15 46 111
-89 113 -84 107 -98 90z"/>
<path d="M4922 1629 c-21 -11 -49 -34 -62 -51 l-24 -32 84 -78 c46 -43 88 -78
92 -78 4 0 23 21 43 46 24 33 35 57 35 81 0 93 -88 151 -168 112z m88 -14 c41
-21 60 -53 60 -100 0 -33 -6 -47 -32 -72 l-33 -32 -74 70 -73 70 28 31 c47 49
78 57 124 33z"/>
<path d="M4645 1390 c-27 -22 -49 -46 -49 -53 2 -26 126 -178 140 -173 22 9
114 80 114 88 0 5 -27 -10 -60 -33 l-59 -42 -20 24 c-29 34 -36 60 -20 70 35
20 82 59 71 59 -7 0 -31 -14 -55 -31 l-42 -30 -22 26 c-30 35 -29 57 5 78 49
30 78 57 62 56 -8 0 -37 -18 -65 -39z"/>
<path d="M5328 1348 c-24 -29 -47 -58 -51 -64 -4 -7 31 -44 85 -89 l91 -78 53
59 c56 62 63 78 40 87 -9 4 -27 -11 -48 -38 -18 -25 -38 -45 -44 -45 -6 0 -20
10 -32 23 l-22 24 21 19 c28 25 41 52 33 65 -4 7 -22 -4 -45 -27 l-39 -38 -21
21 -22 21 37 45 c30 37 34 46 22 56 -11 9 -22 1 -58 -41z"/>
<path d="M4354 1211 c-23 -10 -44 -24 -48 -30 -8 -12 90 -211 104 -211 11 0
-4 46 -22 67 -13 16 -14 15 39 42 23 11 47 30 53 42 24 44 -15 109 -65 109
-11 0 -39 -9 -61 -19z m102 -26 c25 -38 12 -67 -41 -93 l-45 -22 -26 51 c-14
28 -24 52 -22 54 2 1 17 10 33 18 45 24 82 21 101 -8z"/>
<path d="M5122 1137 c-9 -10 -4 -23 20 -51 l32 -39 -45 -38 -44 -39 -36 41
c-31 35 -37 38 -48 25 -10 -12 -10 -19 1 -34 29 -40 132 -162 137 -162 4 0 12
4 20 9 11 7 8 17 -19 52 l-34 42 40 33 c21 19 44 34 49 34 6 0 24 -17 41 -37
27 -32 34 -36 47 -24 17 14 10 26 -98 154 -43 51 -47 54 -63 34z"/>
<path d="M2705 1009 c-20 -60 -34 -113 -31 -116 3 -4 14 13 23 36 14 35 20 41
37 36 12 -4 42 -9 67 -12 40 -5 48 -2 63 18 21 31 21 82 -1 101 -14 13 -101
48 -118 48 -2 0 -20 -50 -40 -111z m153 20 c2 -25 -3 -40 -18 -54 -19 -17 -24
-17 -68 -4 -52 17 -55 26 -26 94 l14 35 48 -18 c43 -16 47 -21 50 -53z"/>
<path d="M3989 1051 c-24 -24 -29 -38 -29 -76 0 -61 21 -98 66 -120 31 -15 43
-15 76 -6 69 21 96 95 62 167 -33 68 -123 86 -175 35z m142 -20 c46 -46 36
-135 -18 -160 -40 -18 -73 -13 -104 18 -38 38 -41 111 -7 148 32 35 91 32 129
-6z"/>
<path d="M3062 1004 c-17 -12 -22 -24 -20 -47 3 -28 11 -36 63 -63 48 -24 61
-36 63 -57 6 -50 -65 -56 -133 -11 -22 14 -27 15 -23 4 6 -22 68 -50 109 -50
44 0 72 27 67 66 -2 22 -15 33 -63 58 -61 32 -77 55 -55 81 16 20 75 19 105
-1 15 -10 25 -12 25 -5 0 15 -54 41 -87 41 -16 0 -39 -7 -51 -16z"/>
<path d="M3674 1003 c-12 -2 -34 -17 -49 -33 -58 -60 -36 -164 41 -196 41 -17
89 -7 119 26 25 27 12 37 -14 11 -64 -64 -161 -14 -161 83 0 68 71 112 131 82
38 -19 47 -16 22 7 -21 18 -58 27 -89 20z"/>
<path d="M3386 874 c-7 -103 -5 -137 8 -123 7 8 12 239 6 239 -4 0 -10 -52
-14 -116z"/>
<path d="M4823 913 c-19 -7 -16 -24 18 -87 17 -31 29 -59 26 -62 -2 -3 -43 11
-90 31 -91 37 -117 42 -117 23 0 -9 94 -192 106 -206 1 -2 11 -1 22 2 18 6 17
10 -15 72 -19 36 -33 67 -30 70 2 3 45 -12 96 -33 124 -50 128 -44 56 91 -31
58 -57 106 -58 105 -1 0 -8 -3 -14 -6z"/>
<path d="M4462 742 c-9 -7 -8 -21 8 -67 23 -65 26 -125 8 -143 -7 -7 -27 -12
-44 -12 -41 0 -58 22 -85 113 -22 69 -25 73 -48 58 -20 -13 32 -164 66 -191
48 -38 137 -18 161 35 16 35 15 47 -10 137 -22 76 -30 86 -56 70z"/>
</g>
</svg>
