<?xml version="1.0" standalone="no"?>
<!DOCTYPE svg PUBLIC "-//W3C//DTD SVG 20010904//EN"
 "http://www.w3.org/TR/2001/REC-SVG-20010904/DTD/svg10.dtd">
<svg version="1.0" xmlns="http://www.w3.org/2000/svg"
 width="1024.000000pt" height="1024.000000pt" viewBox="0 0 1024.000000 1024.000000"
 preserveAspectRatio="xMidYMid meet">

<g transform="translate(0.000000,1024.000000) scale(0.100000,-0.100000)"
fill="#000000" stroke="none">
<path d="M4875 10045 c-371 -69 -695 -231 -951 -477 -86 -83 -169 -181 -217
-255 -38 -60 -26 -54 19 10 42 58 164 188 207 219 20 15 10 -4 -36 -63 -122
-159 -176 -283 -150 -341 l10 -23 37 37 c47 47 46 28 -3 -60 -41 -76 -81 -131
-81 -115 0 6 -13 26 -29 46 l-28 36 -22 -23 c-39 -42 -153 -336 -176 -456 -4
-19 -11 -42 -16 -50 -20 -32 10 119 53 269 16 57 27 105 25 107 -2 3 -14 -28
-26 -68 -12 -40 -26 -84 -31 -98 -48 -133 -81 -347 -105 -670 -17 -233 -17
-243 -5 -215 5 11 9 58 10 105 3 141 15 149 27 17 14 -146 8 -172 -35 -172
-37 -1 -52 -13 -32 -25 28 -18 -18 -11 -48 6 -18 11 -14 5 13 -20 22 -20 44
-36 49 -36 5 0 7 -33 4 -74 -6 -94 -42 -172 -137 -300 -65 -87 -98 -150 -115
-218 -5 -22 -3 -25 12 -21 14 3 17 12 14 32 -5 37 32 109 103 196 84 103 137
218 143 310 3 57 8 72 18 68 18 -7 18 -102 -1 -206 -16 -94 -64 -199 -131
-287 -27 -36 -72 -100 -99 -142 -28 -43 -53 -78 -57 -78 -4 0 -9 10 -11 23 -2
13 -5 5 -6 -18 0 -24 -17 -72 -43 -125 -37 -74 -43 -95 -46 -163 -4 -67 -1
-84 22 -130 14 -29 51 -80 83 -113 65 -68 107 -84 169 -64 35 12 35 12 94 -52
36 -40 82 -77 122 -98 56 -30 74 -34 153 -37 71 -3 102 -9 147 -30 38 -18 62
-23 75 -18 15 8 13 9 -12 13 -16 2 -38 10 -49 18 -20 14 -20 14 -1 14 11 1 45
9 75 20 l55 19 73 -25 c58 -20 88 -24 150 -22 52 2 71 6 57 11 -59 25 -59 27
0 23 33 -3 79 -1 102 4 31 7 59 6 104 -4 33 -8 68 -12 77 -9 9 4 13 2 9 -4 -7
-10 -91 -68 -274 -186 -124 -80 -240 -166 -269 -198 -12 -13 -27 -42 -34 -64
-7 -22 -29 -58 -50 -80 -59 -63 -190 -267 -302 -470 -72 -129 -66 -125 -144
-110 -65 12 -109 8 -171 -15 -25 -9 -37 -9 -55 1 -28 15 -322 114 -507 172
-116 35 -149 41 -227 42 -101 0 -105 2 -222 107 -56 51 -75 57 -109 33 -17
-12 -23 -27 -25 -70 l-3 -55 -115 68 c-284 169 -359 212 -371 211 -8 0 -24
-13 -36 -28 l-22 -28 23 -22 c12 -12 92 -64 177 -115 l154 -94 -4 -81 -3 -81
43 -43 c33 -32 56 -72 93 -158 68 -157 90 -188 156 -222 51 -27 61 -28 146
-24 l91 4 6 -421 c10 -646 29 -936 73 -1156 26 -127 69 -176 153 -174 82 3
348 83 541 164 169 70 373 198 488 305 59 55 72 63 68 44 -3 -13 -7 -40 -10
-59 -3 -19 -28 -159 -55 -310 -109 -593 -198 -1099 -242 -1380 -69 -437 -166
-1119 -175 -1226 -10 -127 13 -158 182 -233 198 -88 544 -186 699 -198 98 -7
138 8 153 59 9 29 20 225 22 377 0 53 0 53 28 46 15 -3 30 -10 34 -13 4 -4 26
-124 48 -267 46 -295 46 -295 67 -295 11 0 14 6 9 23 -3 12 -19 108 -36 212
-17 105 -36 220 -43 256 l-13 66 231 -5 c126 -2 232 -6 235 -9 7 -7 6 -245 -3
-400 -7 -122 -6 -143 7 -143 17 0 29 157 30 392 l0 156 28 4 28 5 0 -202 c0
-118 4 -215 11 -233 18 -54 44 -62 184 -62 l126 0 10 -30 c13 -36 29 -39 29
-6 0 23 0 23 173 30 94 4 189 10 210 13 33 5 37 3 37 -15 0 -12 -4 -24 -10
-27 -15 -9 -12 -25 4 -25 8 0 21 17 29 38 l15 38 109 13 c456 54 926 187 1058
299 75 63 74 118 -20 622 -19 102 -53 286 -75 410 -63 347 -127 679 -165 850
-18 85 -36 169 -40 187 -7 34 9 72 69 166 18 29 42 70 53 92 11 22 27 54 36
70 23 41 107 261 107 279 0 7 20 92 44 187 92 365 125 676 90 846 -35 173
-215 717 -335 1015 -119 293 -269 582 -353 675 -41 45 -159 136 -446 345 -135
97 -200 155 -200 175 0 19 12 16 49 -12 46 -33 108 -41 166 -22 43 15 50 15
112 -4 92 -29 206 -23 283 13 51 24 57 25 89 12 18 -8 35 -14 38 -14 16 0 -14
-21 -40 -29 l-32 -9 28 -1 c15 -1 40 5 55 13 15 7 53 14 84 14 76 2 167 44
236 110 40 38 63 52 95 57 63 11 107 40 162 111 28 35 54 63 59 64 15 0 66 64
91 115 83 167 46 322 -142 604 -117 174 -127 191 -156 270 -19 52 -21 85 -27
446 -7 406 -17 515 -61 690 -81 322 -194 543 -392 768 -196 222 -524 401 -753
412 -62 2 -78 7 -125 39 -109 72 -262 107 -468 105 -75 -1 -167 -7 -206 -14z
m1720 -790 c57 -91 140 -295 120 -295 -2 0 -21 35 -41 78 -55 118 -82 138
-122 87 l-20 -25 -11 48 c-7 26 -30 80 -52 120 -44 83 -47 92 -21 69 10 -9 29
-18 43 -19 19 -2 24 1 23 20 -1 21 0 21 18 5 11 -9 39 -49 63 -88z m-2015 71
c0 -2 -8 -10 -17 -17 -16 -13 -17 -12 -4 4 13 16 21 21 21 13z m-70 -79 l-34
-32 30 36 c16 20 31 34 33 32 3 -2 -10 -18 -29 -36z m-617 -64 c-4 -9 -17 -37
-31 -62 -13 -25 -24 -60 -24 -77 0 -39 28 -94 47 -94 8 0 15 -3 15 -7 0 -13
-65 -142 -71 -142 -9 -1 -19 38 -19 75 0 17 -6 37 -14 43 -66 55 -258 -462
-336 -907 -17 -97 -36 -181 -42 -187 -24 -23 24 279 78 485 44 170 113 372
162 481 72 159 150 305 191 357 43 54 55 64 44 35z m530 2 c-3 -9 -8 -14 -10
-11 -3 3 -2 9 2 15 9 16 15 13 8 -4z m17 -26 c-7 -11 -14 -18 -17 -15 -3 3 0
12 7 21 18 21 23 19 10 -6z m2045 -29 c21 -23 23 -87 3 -105 -7 -7 -35 -20
-62 -30 -48 -17 -50 -17 -63 1 -37 49 -36 53 11 50 42 -3 44 -2 50 27 3 16 6
40 6 53 0 30 29 32 55 4z m-375 -35 c0 -8 5 -15 10 -15 6 0 10 5 10 10 0 19
25 10 45 -16 11 -15 20 -30 20 -35 0 -4 3 -11 8 -15 9 -9 9 -44 0 -44 -3 0
-15 8 -26 18 -19 16 -20 16 -14 -9 8 -32 -1 -43 -21 -27 -11 10 -16 9 -23 -5
-14 -23 -39 -21 -39 3 0 11 -4 20 -8 20 -9 0 -35 90 -27 98 3 3 14 -3 25 -13
19 -17 19 -17 10 16 -14 47 -13 51 10 39 11 -6 20 -17 20 -25z m-300 -12 c0
-8 5 -11 12 -7 8 5 9 2 5 -9 -3 -10 -2 -17 4 -17 6 0 7 -6 3 -12 -5 -9 -2 -8
9 1 10 8 20 11 24 7 3 -3 1 -6 -6 -6 -9 0 -9 -5 -1 -20 8 -15 15 -18 34 -10
13 5 26 7 29 4 2 -3 7 4 10 16 3 11 0 20 -6 20 -6 0 -8 3 -4 6 3 3 14 1 24 -5
10 -6 13 -11 7 -11 -6 0 -11 -13 -11 -30 0 -35 -11 -50 -22 -32 -6 10 -10 10
-18 0 -8 -9 -7 -17 3 -26 10 -9 14 -9 14 -1 0 6 8 9 19 6 12 -3 18 1 17 11 0
8 5 17 13 20 10 3 12 0 8 -12 -4 -11 -1 -16 11 -17 10 0 12 -3 5 -6 -7 -2 -13
-11 -13 -19 0 -9 -11 -14 -30 -14 -23 0 -28 -4 -24 -17 3 -10 -4 -2 -15 17
l-20 35 4 -50 c2 -27 2 -41 -2 -30 -3 11 -16 32 -28 47 -13 15 -26 41 -30 58
-4 16 -11 30 -15 30 -5 0 -7 6 -4 14 3 8 1 17 -5 21 -6 3 -11 16 -11 29 0 12
-6 28 -12 36 -11 12 -10 12 5 1 9 -7 17 -20 17 -28z m-219 2 c10 7 13 -8 2
-18 -7 -7 -32 22 -32 38 0 6 4 2 10 -8 6 -9 14 -15 20 -12z m-1255 -23 c-17
-16 -18 -16 -5 5 7 12 15 20 18 17 3 -2 -3 -12 -13 -22z m1294 14 c0 -8 -6
-16 -12 -19 -10 -4 -10 -7 0 -18 10 -11 12 -10 12 4 0 9 5 17 10 17 6 0 10 -3
10 -8 0 -4 11 -19 24 -33 13 -14 27 -35 30 -47 5 -14 12 -19 23 -15 13 5 13 3
1 -16 -11 -18 -11 -23 1 -31 13 -7 13 -11 0 -26 -8 -11 -9 -15 -2 -10 9 5 11
2 7 -9 -4 -9 -12 -14 -18 -12 -14 4 -55 79 -72 132 -7 22 -13 33 -13 25 -1
-10 -6 -8 -16 7 -10 14 -13 32 -9 48 7 27 24 35 24 11z m41 1 c-1 -12 -15 -9
-19 4 -3 6 1 10 8 8 6 -3 11 -8 11 -12z m-1641 -11 c0 -17 -14 -35 -23 -29 -6
3 -7 1 -3 -5 8 -13 -62 -128 -72 -118 -3 4 -12 -4 -19 -16 -7 -13 -12 -17 -13
-10 0 19 39 97 60 120 11 12 20 26 20 32 0 5 7 10 15 10 8 0 15 5 15 10 0 6 5
10 10 10 6 0 10 -2 10 -4z m1345 -25 c-6 -5 -25 10 -25 20 0 5 6 4 14 -3 8 -7
12 -15 11 -17z m-1189 4 c-4 -13 -2 -14 14 -5 16 9 18 8 14 -5 -4 -8 -10 -15
-15 -15 -5 0 -9 -6 -9 -13 0 -15 -84 -182 -102 -204 -11 -14 -22 -10 -24 10 0
7 -2 20 -2 29 -1 9 -9 24 -18 33 -16 15 -19 14 -50 -16 -19 -18 -34 -40 -35
-48 0 -11 -3 -10 -8 4 -16 41 33 167 84 215 l23 21 6 -25 c9 -37 53 -35 86 4
27 32 46 39 36 15z m579 5 c3 -5 -1 -10 -10 -10 -9 0 -13 5 -10 10 3 6 8 10
10 10 2 0 7 -4 10 -10z m525 -138 c17 -126 20 -168 14 -154 -3 6 -10 9 -16 6
-6 -4 -8 1 -4 13 6 18 2 19 -46 18 -29 -1 -43 0 -30 2 19 4 20 6 8 19 -20 19
-50 19 -42 -1 3 -9 0 -15 -8 -15 -8 0 -17 -6 -19 -12 -3 -8 -6 -6 -6 5 -1 9
-8 17 -16 17 -12 0 -15 15 -15 74 0 41 5 78 10 81 7 4 8 -8 4 -34 -6 -36 -4
-41 12 -42 17 -1 17 -2 2 -6 -11 -3 -18 -14 -18 -29 0 -19 5 -24 25 -24 14 0
25 5 25 10 0 6 7 10 15 10 8 0 15 5 15 10 0 6 8 5 20 -2 27 -17 38 -1 12 18
-23 16 -29 34 -12 34 6 0 10 -6 10 -14 0 -11 5 -12 24 -3 14 7 21 14 16 17 -4
3 -6 19 -4 37 2 18 -1 35 -6 38 -6 3 -10 18 -10 33 l0 27 15 -28 c8 -16 19
-63 25 -105z m430 111 c0 -6 -9 -9 -20 -6 -30 8 -32 18 -4 18 13 0 24 -5 24
-12z m-994 -1 c-2 -4 -1 -14 4 -22 7 -12 11 -9 19 10 l10 25 0 -23 c1 -13 -4
-33 -10 -44 -8 -16 -8 -19 1 -13 9 5 11 0 7 -21 -3 -16 -9 -54 -13 -84 -4 -30
-9 -49 -11 -42 -3 6 -11 12 -19 12 -8 0 -14 7 -12 17 2 12 -7 20 -32 27 -19 5
-36 10 -37 11 -6 3 22 65 29 65 4 0 8 -11 8 -24 0 -24 26 -54 37 -42 4 3 6 40
5 81 0 43 4 75 9 75 6 0 8 -4 5 -8z m-236 -51 c0 -21 -5 -63 -11 -94 -11 -53
-13 -56 -40 -54 -16 1 -29 6 -29 10 0 13 40 140 52 164 15 31 28 19 28 -26z
m322 31 c-17 -5 -15 -32 2 -32 8 0 18 5 21 10 3 6 15 10 27 10 19 0 20 -4 15
-109 -3 -60 -8 -114 -11 -120 -12 -18 -23 -12 -36 19 -14 33 -27 38 -36 15 -9
-23 -34 -18 -34 8 0 12 3 45 6 74 5 42 11 53 27 55 11 2 22 9 23 16 1 7 0 8
-2 3 -12 -23 -30 1 -26 34 3 26 8 32 20 27 10 -4 12 -7 4 -10z m802 -25 c54
-66 109 -226 74 -215 -14 5 -20 16 -54 93 -14 33 -33 76 -42 95 -29 62 -31 70
-22 70 5 0 25 -19 44 -43z m-1320 -63 c-19 -43 -42 -94 -50 -111 -15 -34 -26
-43 -23 -20 4 33 -2 46 -18 40 -12 -5 -15 -2 -11 9 4 9 2 20 -4 26 -8 8 -4 14
15 21 15 6 27 17 27 26 0 8 4 15 10 15 5 0 7 7 3 16 -5 14 -3 15 15 5 27 -15
25 -16 46 24 33 62 27 31 -10 -51z m637 41 c5 4 9 0 9 -9 0 -8 -5 -16 -12 -18
-9 -3 -9 -12 0 -38 15 -41 15 -90 1 -90 -6 0 -9 -10 -8 -22 4 -26 -8 -51 -21
-43 -13 8 -12 208 2 241 l12 29 4 -28 c2 -15 8 -25 13 -22z m-651 5 c0 -5 -7
-7 -15 -4 -8 4 -12 10 -9 15 6 11 24 2 24 -11z m-54 -14 c2 -12 1 -13 -3 -1
-5 18 -23 20 -23 3 0 -6 -3 -9 -6 -5 -9 9 6 29 19 24 7 -2 13 -11 13 -21z
m174 -40 c-22 -75 -49 -141 -49 -123 -1 9 -7 17 -15 17 -8 0 -17 -8 -19 -17
-2 -10 -3 -3 -1 15 1 18 -1 30 -6 27 -5 -3 -1 13 7 34 9 22 18 40 22 39 17 -2
25 3 14 10 -8 5 -5 14 9 32 l21 25 -8 -33 c-4 -19 -9 -43 -11 -55 -2 -12 -6
-35 -8 -52 -7 -35 19 39 35 105 7 25 14 39 17 31 2 -7 -1 -32 -8 -55z m133 49
c4 -8 2 -40 -3 -72 -6 -32 -10 -59 -10 -60 0 -2 -4 -3 -9 -3 -15 0 -21 61 -10
106 12 45 23 55 32 29z m717 -4 c0 -6 -4 -13 -10 -16 -5 -3 -10 1 -10 9 0 9 5
16 10 16 6 0 10 -4 10 -9z m120 -84 c0 -10 4 -26 9 -35 18 -36 21 -69 6 -69
-18 0 -33 37 -45 112 -14 86 -13 94 10 50 11 -22 20 -48 20 -58z m680 89 c0
-11 -19 -15 -25 -6 -3 5 1 10 9 10 9 0 16 -2 16 -4z m-543 -12 c-3 -3 -12 -4
-19 -1 -8 3 -5 6 6 6 11 1 17 -2 13 -5z m-946 -31 c-12 -20 -14 -14 -5 12 4 9
9 14 11 11 3 -2 0 -13 -6 -23z m464 17 c3 -5 -1 -10 -9 -10 -9 0 -16 5 -16 10
0 6 4 10 9 10 6 0 13 -4 16 -10z m41 -165 c-4 -14 -11 -25 -17 -25 -6 0 -8 9
-4 20 6 17 2 20 -29 20 -19 0 -38 5 -41 10 -4 6 -10 8 -14 6 -4 -3 -8 1 -8 9
0 8 4 15 8 15 5 0 6 7 3 15 -4 10 0 15 14 15 11 0 26 7 33 16 12 15 11 16 -8
10 -13 -4 -28 -4 -34 0 -17 10 11 24 37 18 15 -4 24 2 34 23 14 27 14 26 23
-49 5 -43 6 -89 3 -103z m352 138 c14 -11 13 -13 -6 -13 -18 0 -22 6 -21 28 0
15 3 20 6 12 3 -8 12 -21 21 -27z m-718 1 c0 -8 -4 -12 -10 -9 -5 3 -10 13
-10 21 0 8 5 12 10 9 6 -3 10 -13 10 -21z m840 14 c0 -5 -4 -8 -10 -8 -5 0
-10 -7 -10 -15 0 -8 -5 -15 -12 -15 -6 0 -9 -2 -6 -5 8 -8 39 6 33 15 -9 14
34 18 52 5 16 -12 14 -13 -12 -9 l-30 4 30 -14 c22 -10 32 -11 38 -3 6 8 7 5
3 -6 -3 -10 -6 -24 -6 -31 0 -14 -21 -17 -64 -9 -19 3 -25 8 -16 13 8 5 3 8
-13 7 -15 -1 -27 -8 -27 -14 0 -7 -6 -13 -14 -13 -8 0 -16 -7 -20 -15 -3 -8
-15 -15 -26 -15 -17 0 -20 6 -20 44 0 43 0 43 43 51 41 7 42 7 15 17 -42 15
-34 23 22 23 28 0 50 -3 50 -7z m-1326 -19 c-3 -5 -10 -7 -15 -3 -5 3 -7 10
-3 15 3 5 10 7 15 3 5 -3 7 -10 3 -15z m986 14 c0 -5 -4 -15 -10 -23 -11 -18
-25 -7 -17 15 6 15 27 21 27 8z m-621 -35 c-11 -7 -11 -11 -1 -15 6 -2 12 -9
12 -14 0 -12 -38 12 -44 28 -3 7 1 10 8 7 7 -3 17 3 21 13 5 13 9 15 12 4 3
-7 -1 -18 -8 -23z m51 -38 c0 -5 -5 -10 -11 -10 -5 0 -7 5 -4 10 3 6 8 10 11
10 2 0 4 -4 4 -10z m54 1 c3 -5 -5 -8 -19 -7 -14 0 -25 4 -25 9 0 10 38 9 44
-2z m956 -36 c0 -5 -5 -3 -10 5 -5 8 -10 20 -10 25 0 6 5 3 10 -5 5 -8 10 -19
10 -25z m-910 -28 c0 -4 -6 -2 -14 5 -8 7 -12 17 -9 22 5 8 23 -12 23 -27z
m389 -4 c-1 -22 -2 -23 -6 -8 -3 11 -10 23 -17 27 -7 5 -5 8 7 8 12 0 17 -7
16 -27z m58 -20 c-3 -10 -5 -4 -5 12 0 17 2 24 5 18 2 -7 2 -21 0 -30z m267
11 c3 -8 2 -12 -4 -9 -6 3 -10 10 -10 16 0 14 7 11 14 -7z m-664 -19 c0 -8 -2
-15 -4 -15 -2 0 -6 7 -10 15 -3 8 -1 15 4 15 6 0 10 -7 10 -15z m-542 -65
c-13 -58 -3 -246 17 -325 47 -182 182 -335 297 -335 18 0 55 -7 82 -15 55 -17
129 -21 89 -5 -12 5 -29 20 -39 34 -9 14 -20 23 -25 20 -5 -3 -6 2 -3 10 3 9
10 16 14 16 10 0 31 -26 25 -31 -2 -3 4 -5 13 -6 9 -1 44 -8 76 -17 58 -15
141 -12 151 5 3 4 -4 10 -15 14 -11 3 -20 11 -20 16 0 12 -1 12 67 -6 60 -16
173 -21 122 -5 -90 27 -159 135 -175 275 l-5 50 35 -68 c51 -99 177 -247 210
-247 9 0 14 5 11 10 -3 6 -14 10 -24 10 -10 0 -24 6 -30 14 -20 24 170 27 236
4 33 -11 81 -18 129 -18 l76 0 -41 47 c-75 84 -125 222 -146 398 -10 82 4 63
32 -45 42 -165 112 -314 189 -404 68 -80 147 -136 224 -161 30 -10 105 -41
166 -70 l111 -53 37 -72 c23 -42 34 -76 29 -81 -5 -5 -74 -49 -153 -98 -124
-76 -145 -86 -148 -70 -4 21 31 76 61 98 13 9 16 16 8 24 -18 18 -13 35 12 42
25 8 64 42 79 68 8 16 6 18 -19 16 -61 -5 -94 1 -100 18 -4 9 -2 18 4 20 5 2
19 11 29 19 18 14 17 15 -15 10 -37 -7 -106 9 -117 25 -4 6 6 22 22 34 l29 23
-41 -10 c-37 -10 -48 -8 -130 28 -88 39 -90 39 -214 39 -114 -1 -130 -3 -182
-27 -114 -53 -179 -125 -183 -203 -1 -22 -6 -49 -9 -60 -5 -15 -3 -14 11 5 32
46 97 99 158 132 l60 32 -31 -36 c-42 -48 -58 -99 -58 -183 0 -125 55 -229
148 -278 57 -30 165 -30 221 0 129 68 194 261 134 393 l-20 45 37 -35 c51 -48
84 -122 84 -187 0 -53 0 -53 -31 -53 -20 0 -29 -4 -26 -12 2 -7 14 -12 26 -11
27 3 27 -13 1 -27 -29 -15 -25 -33 6 -27 24 4 26 2 20 -23 -10 -54 -51 -125
-96 -171 -50 -49 -169 -104 -254 -115 -47 -7 -74 -19 -64 -29 11 -11 131 16
203 46 128 53 216 156 231 270 6 44 11 51 53 77 25 16 95 59 155 96 95 59 111
66 121 53 10 -13 24 -3 97 68 111 107 173 127 263 86 120 -54 175 -223 125
-384 -45 -144 -163 -247 -339 -296 -60 -17 -84 -18 -154 -11 -45 5 -95 14
-112 20 -27 10 -32 9 -45 -12 -39 -59 -133 -170 -174 -204 -106 -89 -235 -150
-429 -202 -99 -26 -102 -28 -105 -57 -2 -17 2 -55 8 -85 12 -52 11 -55 -11
-73 -53 -41 -190 -134 -276 -188 l-92 -58 -25 44 c-32 53 -33 92 -5 140 16 27
22 52 21 96 -1 45 3 61 16 69 12 6 -36 10 -153 10 -209 0 -318 12 -460 50
-158 42 -166 45 -237 79 -89 43 -148 98 -186 173 -32 62 -62 182 -49 194 4 4
33 -5 64 -19 155 -68 351 -51 487 42 78 54 145 160 146 228 0 23 10 43 38 71
47 51 123 70 205 52 60 -12 127 -55 127 -80 0 -34 61 -139 104 -178 80 -74
209 -121 329 -122 73 0 56 17 -25 25 -202 20 -330 107 -358 242 -10 46 -9 62
4 97 15 41 12 86 -6 86 -5 0 -19 -22 -31 -50 -12 -27 -25 -50 -29 -50 -4 0
-23 11 -43 24 -70 48 -208 41 -278 -14 -30 -24 -37 -25 -37 -6 0 17 -46 74
-53 66 -3 -3 4 -41 15 -85 20 -78 20 -81 2 -134 -43 -128 -202 -230 -356 -231
-26 0 -50 -4 -53 -10 -3 -5 -13 -6 -23 -1 -9 4 -55 20 -102 35 -46 15 -97 37
-112 47 -27 20 -28 23 -28 112 0 59 -9 136 -26 219 -15 71 -23 132 -19 136 6
7 29 -17 65 -68 14 -20 15 -17 16 39 3 103 63 176 178 214 63 22 63 22 27 -8
-100 -85 -71 -323 55 -434 102 -90 258 -62 315 57 41 83 18 266 -44 349 -55
74 -121 115 -232 143 -61 16 -85 17 -142 9 -37 -5 -85 -7 -107 -3 -27 4 -36 3
-32 -5 4 -6 16 -11 26 -11 34 0 31 -18 -8 -41 -27 -17 -50 -22 -87 -21 l-49 1
32 -19 c18 -11 32 -23 32 -27 -1 -9 -90 -76 -95 -71 -2 1 -6 40 -10 84 l-7 81
43 30 c24 17 62 40 85 51 46 23 86 66 125 134 l27 45 151 8 c83 4 151 11 151
16 0 16 -41 46 -80 58 -22 6 -73 12 -114 12 -67 0 -74 2 -66 17 5 9 30 82 55
162 26 80 51 154 55 165 5 11 20 49 34 85 40 108 46 123 51 119 2 -3 -1 -25
-7 -49z m1077 39 c11 -16 1 -19 -13 -3 -7 8 -8 14 -3 14 5 0 13 -5 16 -11z
m55 -469 c0 -5 -5 -10 -11 -10 -5 0 -7 5 -4 10 3 6 8 10 11 10 2 0 4 -4 4 -10z
m-190 -31 c0 -6 -6 -11 -12 -13 -7 -2 -28 -8 -45 -14 -18 -5 -33 -7 -33 -2 0
10 25 20 53 21 12 0 16 3 10 6 -21 8 -15 22 7 16 11 -3 20 -9 20 -14z m-358
-163 c43 -22 47 -26 26 -26 -59 0 -130 51 -180 129 -45 72 -32 70 37 -6 41
-45 84 -81 117 -97z m839 -13 c13 -16 12 -17 -3 -4 -10 7 -18 15 -18 17 0 8 8
3 21 -13z m44 -24 c11 -16 1 -19 -13 -3 -7 8 -8 14 -3 14 5 0 13 -5 16 -11z
m-235 -325 c0 -27 -37 -51 -64 -41 -26 10 -21 66 7 76 30 12 57 -4 57 -35z
m-1248 -31 c23 -21 23 -45 -2 -68 -16 -15 -22 -15 -35 -5 -18 15 -20 61 -3 78
15 15 18 15 40 -5z m1200 -165 c15 -15 29 -19 56 -15 53 7 70 12 79 22 4 4 2
5 -6 0 -9 -5 -12 -3 -9 6 6 15 19 15 93 0 66 -15 71 -22 51 -74 -45 -118 -187
-165 -306 -102 -73 40 -93 59 -95 92 -1 16 -6 40 -9 54 -7 23 -4 27 25 35 46
13 98 5 121 -18z m1514 -4 c8 -20 55 -95 104 -167 152 -227 199 -350 185 -483
-7 -71 -50 -167 -89 -203 -31 -29 -31 -30 -5 38 59 157 22 311 -146 596 -55
93 -59 105 -65 177 -3 43 -4 78 -2 78 2 0 10 -16 18 -36z m-2570 -9 c9 -8 25
-15 37 -15 50 -1 64 -36 38 -95 -23 -53 -84 -100 -142 -109 -95 -15 -189 52
-227 162 l-11 32 53 0 c28 0 57 5 62 10 7 7 20 0 39 -20 36 -38 86 -41 109 -8
9 12 16 30 16 40 0 22 7 23 26 3z m581 -97 c-3 -8 -6 -5 -6 6 -1 11 2 17 5 13
3 -3 4 -12 1 -19z m-410 -20 c-3 -8 -6 -5 -6 6 -1 11 2 17 5 13 3 -3 4 -12 1
-19z m410 -35 c-3 -10 -5 -4 -5 12 0 17 2 24 5 18 2 -7 2 -21 0 -30z m1280
-380 c-2 -16 -4 -3 -4 27 0 30 2 43 4 28 2 -16 2 -40 0 -55z m-3125 -15 c-36
-98 -54 -203 -50 -291 3 -45 8 -91 13 -101 18 -42 -16 -3 -42 47 -38 73 -38
157 1 247 30 71 86 164 93 156 3 -3 -4 -29 -15 -58z m3160 -45 c20 -18 24 -73
6 -91 -7 -7 -26 -12 -43 -12 -37 0 -55 16 -55 49 0 28 36 71 58 71 9 0 24 -7
34 -17z m799 -221 c-14 -52 -44 -88 -92 -112 -64 -33 -64 -23 -1 45 41 43 67
82 79 116 17 48 18 49 21 21 2 -17 -2 -48 -7 -70z m-3859 -152 c29 -27 56 -50
61 -50 4 0 5 -4 2 -10 -11 -17 -61 -11 -96 13 -45 30 -80 101 -86 179 l-5 63
36 -72 c22 -46 54 -91 88 -123z m2645 83 c-3 -10 -5 -4 -5 12 0 17 2 24 5 18
2 -7 2 -21 0 -30z m10 -90 c-2 -16 -4 -5 -4 22 0 28 2 40 4 28 2 -13 2 -35 0
-50z m-459 -25 c2 -15 -10 -75 -26 -135 -17 -59 -43 -157 -58 -217 -26 -101
-32 -114 -82 -172 -30 -35 -63 -64 -72 -64 -22 0 -39 23 -110 150 -29 52 -62
105 -73 117 -11 13 -19 24 -16 25 2 2 24 13 49 26 25 12 59 34 75 48 17 14 88
64 158 111 123 83 167 123 132 123 -8 0 -15 5 -15 11 0 24 35 3 38 -23z m-510
-35 c-2 -19 -8 -28 -20 -27 -10 1 -15 -2 -12 -7 3 -5 0 -9 -5 -9 -15 0 -14
-78 1 -121 6 -19 20 -47 31 -62 l20 -29 -35 -28 c-18 -15 -47 -52 -63 -81 -36
-68 -105 -172 -111 -167 -19 20 112 499 146 536 30 31 52 29 48 -5z m-1184
-45 c8 -5 7 -8 -1 -8 -13 0 -43 38 -43 54 0 6 8 -1 17 -14 9 -14 22 -28 27
-32z m1940 -255 c-2 -29 -24 -104 -150 -508 -26 -82 -49 -165 -53 -183 -3 -18
-10 -33 -16 -32 -24 2 -15 -49 14 -79 37 -38 49 -39 61 -6 7 19 5 33 -10 58
-11 17 -20 41 -20 51 0 18 2 18 25 -4 13 -13 27 -31 31 -42 11 -35 34 -21 34
21 0 57 8 71 40 71 24 0 27 -3 22 -22 -3 -13 -14 -38 -25 -55 -22 -39 -17 -42
16 -10 25 23 41 76 29 92 -4 6 -18 11 -31 13 -25 4 -71 -32 -71 -55 0 -20 -13
-15 -37 16 -19 24 -20 32 -10 74 7 31 16 47 26 48 11 0 12 2 4 6 -21 8 -15 22
7 16 11 -3 20 -9 20 -12 0 -4 12 -6 28 -4 15 2 58 -2 97 -9 52 -10 71 -18 73
-31 2 -11 -3 -17 -15 -18 -16 0 -16 -1 2 -9 11 -5 15 -9 9 -9 -6 -1 -16 -12
-22 -25 -9 -19 -8 -25 4 -30 23 -9 -7 -57 -50 -80 -20 -11 -36 -23 -36 -27 0
-4 -15 -24 -34 -43 -18 -20 -31 -38 -28 -40 2 -3 -12 -1 -32 5 -20 6 -52 8
-71 5 -28 -5 -35 -2 -40 15 -4 12 -10 17 -15 13 -4 -5 -22 -102 -41 -215 -32
-200 -34 -206 -61 -222 -27 -15 -28 -15 -28 4 0 35 70 383 126 629 14 63 51
196 82 295 30 99 66 218 79 265 14 47 26 91 29 98 2 8 12 12 21 10 13 -3 18
-13 17 -35z m-678 -17 c30 -30 34 -40 34 -85 0 -27 -11 -84 -24 -126 -13 -41
-20 -73 -16 -70 11 7 50 138 50 169 0 43 13 29 52 -55 22 -47 42 -78 48 -74 5
3 10 1 10 -4 0 -6 9 -11 20 -11 11 0 20 -5 20 -11 0 -15 -140 -260 -159 -280
-9 -8 -38 -59 -66 -113 -27 -53 -58 -105 -67 -113 -17 -15 -18 -14 -19 23 -1
30 -3 25 -9 -21 -7 -63 -72 -215 -91 -215 -13 0 -44 289 -37 344 2 20 0 37 -5
39 -5 1 -10 36 -12 77 -3 41 -7 114 -11 161 -7 98 -2 112 66 194 23 27 50 66
61 87 22 44 90 118 108 118 7 0 28 -15 47 -34z m1013 -75 c12 -8 8 -29 -28
-133 -134 -390 -205 -669 -236 -921 -6 -50 -11 -60 -33 -68 -13 -5 -27 -7 -30
-5 -7 8 34 227 75 396 58 244 93 369 143 510 26 74 53 153 60 175 19 61 22 63
49 46z m-1727 -118 c-38 -110 -87 -277 -106 -369 -8 -38 -21 -87 -29 -109 -14
-38 -21 -87 -33 -225 -7 -75 -22 -220 -39 -365 -42 -357 -59 -641 -70 -1175
-13 -713 -17 -848 -36 -1202 -11 -207 -22 -390 -24 -405 -3 -15 -14 -140 -25
-278 -30 -364 -80 -856 -130 -1260 -11 -88 -23 -195 -26 -237 -4 -43 -11 -75
-15 -72 -5 3 -9 0 -9 -6 0 -6 -5 -8 -11 -4 -12 7 -11 22 27 324 13 107 28 240
33 295 5 55 19 179 30 275 11 96 29 283 41 415 11 132 24 290 30 350 13 147
37 499 50 715 6 96 15 470 20 830 12 855 23 1032 100 1630 52 401 97 625 168
825 30 85 67 148 81 138 2 -1 -10 -42 -27 -90z m1832 32 c33 -22 64 -44 70
-50 6 -5 37 -29 69 -53 31 -23 57 -47 57 -53 0 -6 4 -8 9 -5 4 3 16 -3 25 -12
15 -17 13 -21 -20 -53 -19 -19 -48 -57 -64 -84 -39 -68 -98 -225 -115 -305
-15 -72 -33 -124 -34 -99 -1 9 -13 21 -28 28 -35 16 -181 51 -214 51 -27 0
-28 -1 -46 -75 -5 -22 -12 -134 -15 -237 -1 -57 -4 -67 -21 -72 -21 -5 -21
-21 4 169 20 152 87 433 139 580 17 50 47 137 66 195 46 141 44 136 52 125 4
-6 34 -28 66 -50z m-1880 8 c-4 -16 -21 -71 -39 -123 -17 -52 -38 -123 -45
-157 -12 -59 -14 -62 -36 -57 -15 4 -24 2 -24 -5 0 -6 9 -11 20 -11 11 0 20
-6 20 -14 0 -10 -15 -15 -47 -18 -27 -3 -57 -8 -68 -13 -15 -6 -13 -1 8 18 15
15 35 27 43 27 7 0 14 5 14 10 0 10 -15 14 -34 11 -4 -1 -6 9 -2 22 3 13 10
57 16 98 13 92 19 111 39 126 12 10 13 12 2 13 -15 0 62 60 77 60 5 0 17 9 27
20 25 28 37 25 29 -7z m281 -40 c-4 -10 -29 -101 -57 -203 -27 -102 -56 -205
-64 -230 -10 -28 -19 -114 -24 -230 -5 -102 -12 -214 -15 -250 -3 -36 -10
-144 -15 -240 -6 -96 -19 -301 -30 -455 -20 -285 -35 -726 -45 -1365 -8 -501
-17 -649 -91 -1480 -47 -542 -70 -770 -100 -1010 -32 -263 -42 -317 -60 -317
-18 0 -18 -7 11 219 33 261 51 429 75 713 11 132 29 328 40 435 54 539 81 970
90 1465 12 604 28 1192 35 1265 3 30 12 150 20 265 15 213 36 511 56 775 15
207 36 314 106 543 30 97 40 117 56 117 14 0 17 -4 12 -17z m-461 -65 c-4 -7
-9 -28 -10 -48 -5 -120 -30 -214 -64 -245 -18 -16 -18 -14 -15 87 3 117 10
140 54 186 31 32 49 42 35 20z m2366 -159 c16 -23 27 -45 24 -50 -3 -5 0 -9 6
-9 6 0 9 -4 6 -8 -3 -5 4 -19 15 -31 12 -12 19 -24 18 -26 -2 -2 -32 -10 -66
-19 -79 -21 -145 -49 -162 -70 -14 -16 -41 -22 -41 -8 0 53 129 262 162 262 4
0 21 -19 38 -41z m-2504 -36 c-15 -52 -36 -178 -41 -248 -7 -94 -13 -189 -14
-227 -1 -25 -4 -27 -43 -26 -26 1 -76 -11 -126 -30 -46 -18 -92 -32 -103 -32
-22 0 -26 25 -5 33 8 3 19 22 26 41 6 20 16 33 21 30 6 -3 9 0 8 7 -1 8 6 33
16 57 13 30 21 39 27 30 5 -9 8 -6 8 10 0 12 5 22 12 22 6 0 8 3 5 6 -7 7 42
97 55 102 4 2 8 10 8 18 0 9 5 12 12 8 7 -4 8 -3 4 4 -4 7 0 22 8 34 9 12 16
18 16 13 0 -5 17 25 38 66 21 41 41 80 45 87 12 18 29 15 23 -5z m348 -87 c-3
-15 0 -12 11 9 l16 30 -4 -27 c-4 -23 -2 -26 14 -18 24 13 38 12 19 -1 -11 -8
-12 -12 -3 -16 10 -3 9 -8 -3 -20 -8 -8 -18 -12 -22 -9 -3 4 0 11 8 16 8 6 11
10 6 10 -5 0 -18 -7 -28 -17 -16 -14 -21 -15 -44 -3 -22 12 -27 12 -35 0 -8
-11 -9 -7 -4 15 3 17 13 35 20 41 8 6 12 14 8 17 -3 4 -1 7 6 7 7 0 11 -6 8
-13 -3 -8 -1 -20 4 -28 7 -11 9 -10 10 6 1 11 1 27 0 35 -2 12 0 13 7 1 5 -7
8 -23 6 -35z m-338 -213 c-7 -214 -19 -381 -41 -593 -24 -217 -24 -222 -26
-323 -2 -81 -5 -97 -18 -95 -10 2 -15 -5 -16 -19 0 -27 -15 -32 -30 -9 -7 11
-6 21 1 34 9 14 9 24 -2 43 -7 13 -13 41 -14 62 0 23 -4 36 -10 32 -6 -4 -10
5 -10 20 0 14 -4 24 -9 21 -5 -3 -9 0 -8 7 1 35 -4 58 -12 53 -5 -3 -11 1 -15
9 -3 8 0 15 7 15 7 0 4 5 -6 11 -9 6 -15 15 -11 20 3 5 -5 19 -18 30 -16 14
-19 22 -10 25 18 8 15 18 -15 50 -16 17 -44 52 -62 79 -52 74 -143 165 -205
205 -30 19 -55 39 -56 44 0 5 23 6 53 2 28 -4 72 -10 97 -13 25 -3 116 -6 202
-7 l158 -1 0 -55 c1 -101 17 -30 23 100 4 69 13 168 21 220 7 52 17 125 21
163 13 126 18 67 11 -130z m181 160 c-3 -16 -17 -86 -30 -158 -26 -133 -28
-148 -47 -340 -6 -60 -15 -139 -19 -175 -38 -296 -60 -588 -67 -910 -3 -151
-7 -281 -10 -288 -6 -19 -44 23 -44 49 0 18 -2 19 -15 9 -19 -16 -19 -19 0
140 8 69 19 247 25 395 13 312 40 666 71 910 11 94 22 188 24 210 2 22 4 47 4
55 1 12 5 10 18 -5 15 -19 15 -19 9 13 -3 21 -2 31 4 27 6 -3 10 1 10 9 0 22
-28 20 -33 -1 -2 -10 -3 0 0 22 2 22 9 45 14 50 7 7 8 4 4 -7 -5 -12 -2 -18 8
-18 8 0 17 9 20 20 4 14 14 20 32 20 24 0 27 -3 22 -27z m2322 -12 c7 -5 12
-13 10 -18 -2 -6 -13 -2 -23 8 -20 19 -12 26 13 10z m-2462 -33 c-3 -7 -5 -2
-5 12 0 14 2 19 5 13 2 -7 2 -19 0 -25z m288 11 c30 -1 29 -1 -6 -8 -36 -7
-79 -41 -79 -62 0 -7 12 0 27 15 32 32 64 41 92 27 69 -37 11 -221 -69 -221
-45 0 -70 40 -69 109 1 75 19 125 48 129 19 3 20 6 10 20 -11 14 -11 15 1 5 8
-7 28 -14 45 -14z m50 1 l19 -21 14 23 c10 18 12 18 6 3 -4 -11 -6 -28 -6 -37
1 -17 0 -17 -23 0 -14 9 -25 21 -25 25 0 4 -10 12 -22 17 -22 8 -22 9 -2 9 11
1 29 -8 39 -19z m2048 -9 c-5 -20 19 -75 38 -87 9 -5 10 6 6 42 -4 42 -3 46 8
30 7 -10 28 -63 45 -119 51 -163 130 -368 158 -412 l14 -20 -7 20 c-4 11 -27
73 -51 138 -24 65 -60 173 -79 240 -20 67 -37 128 -40 135 -2 6 3 12 11 12 8
0 12 -4 9 -10 -3 -6 1 -7 9 -4 9 3 16 15 16 27 0 20 1 20 25 -3 13 -12 32 -46
41 -74 9 -28 31 -78 49 -111 18 -33 36 -71 40 -85 11 -38 75 -169 85 -175 11
-7 -21 78 -56 149 -14 27 -22 51 -20 53 12 12 107 -214 155 -367 10 -30 23
-65 30 -78 10 -18 44 -121 75 -227 2 -5 6 -17 9 -25 12 -30 36 -106 41 -130 2
-14 11 -45 19 -70 15 -45 25 -79 53 -180 16 -57 14 -171 -4 -193 -9 -12 -41
-106 -48 -140 -1 -10 -17 -47 -34 -83 -16 -35 -30 -71 -30 -80 0 -8 -4 -12
-10 -9 -6 4 -10 -8 -10 -29 0 -20 -4 -36 -10 -36 -5 0 -10 -15 -10 -33 0 -18
-4 -37 -9 -43 -5 -5 -11 -27 -13 -48 -2 -25 -9 -41 -18 -43 -12 -4 -12 -3 -1
5 8 6 9 12 3 16 -5 3 -13 -1 -16 -9 -3 -9 1 -18 9 -21 22 -9 18 -24 -6 -24
-12 0 -19 -5 -16 -12 2 -7 11 -12 18 -10 9 1 8 -3 -3 -11 -10 -8 -18 -24 -18
-36 0 -11 -8 -29 -17 -39 -29 -30 -43 -60 -43 -89 0 -20 -3 -24 -9 -14 -5 8
-7 20 -4 28 8 21 -21 15 -41 -9 -13 -14 -15 -23 -8 -26 12 -4 17 -32 7 -32 -3
0 -14 5 -24 12 -20 12 -51 5 -51 -11 0 -7 9 -7 25 -1 27 10 33 2 13 -18 -8 -8
-9 -12 -1 -12 6 0 13 5 15 12 3 7 7 8 11 2 3 -5 2 -16 -3 -24 -7 -11 -15 -10
-47 5 -21 10 -43 25 -50 34 -6 9 -15 12 -20 8 -4 -5 0 -14 9 -21 11 -8 14 -17
8 -26 -5 -8 -6 -27 -3 -42 3 -17 1 -28 -6 -28 -6 0 -11 12 -11 27 l0 27 -17
-24 c-19 -28 -33 -40 -48 -40 -5 0 -3 5 5 10 13 8 12 10 -2 10 -10 0 -18 7
-18 15 0 8 -1 18 -1 23 -1 4 16 12 37 18 l39 11 -53 0 c-36 -1 -56 4 -63 14
-7 11 -9 11 -9 -3 0 -10 6 -18 14 -18 7 0 16 -9 19 -21 4 -16 0 -23 -15 -27
-21 -5 -21 -5 1 -14 14 -5 19 -12 15 -20 -6 -9 -9 -9 -12 0 -7 23 -24 12 -20
-13 3 -14 1 -25 -3 -25 -5 0 -9 12 -9 26 0 20 -4 24 -18 20 -11 -4 -27 3 -42
16 -17 16 -22 18 -17 6 3 -9 1 -19 -6 -21 -7 -2 -4 -3 6 -1 10 1 17 -2 15 -8
-6 -18 -89 -15 -151 5 -62 19 -106 15 -88 -7 8 -9 6 -18 -4 -32 -15 -18 -16
-18 -13 5 4 33 -20 39 -28 7 -7 -30 -28 -34 -44 -8 -10 16 -10 16 -20 0 -14
-22 -50 -24 -50 -3 0 9 15 23 33 31 l32 14 -30 -1 c-57 -2 -65 1 -65 22 0 11
-4 17 -10 14 -14 -8 -13 -21 3 -37 13 -13 18 -118 6 -118 -11 0 -20 50 -13 72
4 13 2 18 -4 14 -9 -5 -25 33 -37 84 0 3 -11 34 -23 70 -36 106 -81 274 -76
282 3 5 1 8 -5 8 -5 0 -13 15 -16 33 -8 35 -48 142 -74 197 -14 31 -26 51 -74
124 -6 10 -21 27 -31 37 -23 22 -12 40 37 60 18 7 70 35 117 61 47 27 92 53
100 57 20 11 78 -6 245 -69 163 -61 226 -80 275 -80 31 1 33 2 18 14 -10 7
-18 17 -18 22 0 5 -18 20 -40 34 -35 23 -236 176 -287 219 -12 10 -25 16 -28
13 -3 -4 -3 2 1 11 4 10 13 16 21 13 8 -3 11 -1 8 5 -11 17 46 95 59 81 4 -3
4 1 0 11 -4 11 0 19 10 23 9 3 14 9 11 13 -2 4 14 18 36 31 35 19 50 21 97 16
79 -9 130 -35 224 -114 101 -84 177 -139 243 -178 44 -25 59 -28 129 -27 96 1
117 14 93 61 -11 23 -12 33 -3 43 8 9 7 11 -6 6 -9 -3 -27 3 -41 13 -18 14
-27 16 -35 8 -8 -8 -13 -7 -18 5 -3 9 -15 17 -26 17 -10 0 -16 5 -13 10 3 6
-1 10 -10 10 -8 0 -18 7 -21 15 -4 8 -18 15 -32 15 -28 0 -20 14 13 24 11 3 1
4 -22 3 -24 -2 -43 1 -43 5 0 5 12 8 28 9 16 0 21 3 12 6 -8 4 -40 23 -70 43
-153 104 -418 180 -464 134 -15 -14 -16 6 -16 223 0 135 -5 254 -11 276 -5 20
-11 88 -12 150 -1 99 1 116 20 147 12 19 31 68 43 108 12 39 27 75 32 79 7 4
9 -3 4 -20 -14 -58 -42 -416 -36 -472 2 -25 17 21 25 80 4 22 10 56 16 75 5
19 14 98 20 175 5 77 12 141 14 144 8 7 26 -50 61 -194 41 -162 53 -197 66
-189 5 3 6 13 3 23 -4 9 -8 27 -10 41 -5 34 -21 100 -46 190 -41 147 -46 180
-24 180 8 0 15 5 15 10 0 6 4 10 9 10 5 0 7 -8 4 -19z m-4082 -91 c75 -65 143
-103 201 -114 79 -14 158 -164 194 -366 8 -47 17 -92 20 -102 4 -13 -17 -21
-127 -47 -168 -40 -259 -42 -328 -6 -55 27 -80 58 -116 140 -14 30 -41 89 -60
129 -38 80 -42 101 -22 109 6 3 -2 3 -18 1 -48 -8 -68 22 -68 97 1 74 14 90
80 96 57 6 103 -10 103 -33 0 -10 -21 -38 -47 -63 -27 -25 -42 -46 -35 -49 7
-2 12 -10 12 -17 0 -11 5 -11 28 0 41 20 226 59 245 52 23 -9 21 -52 -2 -74
-11 -10 -47 -29 -81 -42 -77 -29 -73 -38 5 -10 32 11 91 23 131 26 67 4 73 3
79 -17 9 -27 -17 -57 -59 -70 -30 -9 -30 -10 -3 -6 20 2 32 -3 42 -18 21 -29
20 -32 -21 -57 -69 -42 -92 -82 -54 -92 17 -4 20 0 20 28 0 28 4 34 28 40 15
3 39 18 54 33 l28 26 41 -23 c45 -26 55 -21 65 24 5 29 0 34 -90 103 -53 39
-101 72 -108 72 -7 0 -25 15 -40 34 -18 23 -39 36 -64 40 -38 8 -102 43 -141
79 -40 36 -25 137 20 137 10 0 49 -27 88 -60z m3469 -70 c0 -5 -5 -10 -11 -10
-5 0 -7 5 -4 10 3 6 8 10 11 10 2 0 4 -4 4 -10z m-24 -77 c-8 -35 -12 -41 -14
-22 -2 13 -10 28 -18 32 -19 11 -18 25 4 30 38 10 39 9 28 -40z m184 38 c0 -4
11 -6 25 -3 29 5 29 9 11 -54 -14 -49 -28 -147 -31 -217 -1 -37 -16 -57 -44
-57 -11 0 -13 29 -9 158 2 86 7 163 11 170 9 14 37 17 37 3z m-240 -9 c0 -4
-9 -8 -20 -9 -11 -1 -20 2 -20 8 0 5 9 9 20 9 11 0 20 -4 20 -8z m-2889 -56
c69 -20 160 -50 203 -66 42 -16 88 -32 103 -34 33 -6 121 -41 198 -77 51 -24
116 -79 177 -149 36 -41 86 -107 96 -127 7 -12 18 -27 25 -35 13 -14 45 -60
63 -93 60 -109 81 -150 105 -209 16 -38 29 -77 29 -87 0 -9 6 -19 13 -22 9 -3
8 -8 -3 -22 -14 -17 -13 -17 10 -11 l25 7 -22 -20 c-13 -10 -23 -26 -23 -34 0
-13 -16 -59 -40 -112 -5 -11 -27 -65 -50 -120 -70 -169 -131 -284 -148 -278
-11 5 -13 1 -7 -18 5 -19 4 -21 -5 -9 -9 13 -13 11 -32 -10 -20 -24 -20 -24
-14 -2 8 23 -2 27 -48 22 -13 -1 -17 3 -13 13 8 21 -11 36 -36 29 -20 -5 -20
-6 -1 -13 16 -6 14 -8 -9 -8 -21 -1 -30 5 -34 20 -4 12 -11 18 -20 15 -15 -6
-37 39 -27 55 3 5 -4 9 -15 9 -22 0 -28 -14 -11 -25 12 -8 13 -45 2 -45 -5 0
-14 10 -20 23 l-11 22 0 -24 c-1 -24 -1 -24 -15 -5 -12 15 -17 17 -27 7 -18
-18 -32 -16 -25 2 3 8 1 15 -4 15 -6 0 -10 -6 -10 -14 0 -22 -42 -13 -51 12
-6 16 -5 22 6 22 8 0 15 -7 15 -15 0 -8 5 -15 11 -15 18 0 5 35 -14 38 -35 7
-67 -7 -61 -26 5 -16 5 -16 -9 1 -8 9 -19 17 -26 17 -6 0 -11 5 -11 10 0 6 7
10 15 10 8 0 15 4 15 10 0 5 -6 7 -14 4 -8 -3 -19 3 -26 15 -8 16 -20 21 -52
21 -31 0 -39 3 -31 11 13 13 -6 39 -29 39 -8 -1 -7 -4 4 -11 20 -11 13 -39 -9
-39 -8 0 -11 5 -8 10 4 6 -5 10 -19 10 -31 0 -33 13 -6 40 22 22 4 29 -19 8
-11 -11 -13 -10 -8 5 4 9 2 17 -3 17 -6 0 -11 -24 -11 -52 l-2 -53 -7 45 c-4
25 -6 55 -4 67 2 12 0 24 -6 28 -5 3 -9 64 -9 146 0 77 -2 143 -5 147 -3 5 -6
44 -7 88 -1 43 -6 93 -10 109 -4 17 -11 75 -14 130 -3 55 -9 118 -14 139 -6
22 -8 43 -5 47 2 4 0 10 -5 13 -4 3 -11 32 -15 64 -4 31 -15 85 -25 119 -10
34 -16 64 -13 67 3 3 0 6 -6 6 -7 0 -12 4 -12 9 0 5 -14 40 -32 78 -17 37 -32
73 -33 79 -3 14 13 10 186 -40z m1549 40 c0 -14 -70 -96 -83 -96 -13 0 8 36
42 73 40 42 41 43 41 23z m1748 -19 c12 -12 11 -21 -6 -58 -20 -43 -46 -128
-57 -181 -4 -23 -11 -28 -36 -28 -29 0 -31 2 -26 28 3 15 13 80 23 146 l18
118 35 -6 c19 -3 41 -12 49 -19z m-1908 -11 c0 -7 11 -25 25 -40 14 -15 25
-32 25 -38 0 -5 6 -8 14 -5 10 4 12 0 9 -14 -3 -10 -12 -19 -21 -19 -8 0 -13
3 -9 6 8 9 -16 55 -42 78 -21 19 -30 63 -11 51 6 -3 10 -12 10 -19z m1933 -93
c-4 -23 -2 -34 4 -30 5 3 10 0 10 -8 0 -8 -4 -15 -9 -15 -4 0 -8 -7 -8 -16 0
-9 5 -12 12 -8 7 5 8 3 3 -6 -5 -8 -7 -64 -6 -125 3 -137 -12 -195 -24 -91 -4
38 -13 87 -21 110 -16 43 -15 51 18 159 22 75 30 86 21 30z m-406 -25 c-3 -8
-6 -5 -6 6 -1 11 2 17 5 13 3 -3 4 -12 1 -19z m295 -190 c-7 -7 -12 -8 -12 -2
0 14 12 26 19 19 2 -3 -1 -11 -7 -17z m-82 -8 c0 -5 -7 -10 -16 -10 -8 0 -12
5 -9 10 3 6 10 10 16 10 5 0 9 -4 9 -10z m144 -12 c3 -13 19 -135 36 -271 l31
-248 -39 -52 c-22 -29 -59 -81 -83 -117 -59 -88 -135 -162 -199 -194 -118 -59
-321 -178 -332 -195 -13 -18 -17 -18 -129 4 -117 23 -159 37 -159 56 0 6 -4 7
-10 4 -5 -3 -18 -2 -28 4 -22 12 -50 -3 -62 -32 -8 -21 -9 -20 -9 5 -1 15 -5
29 -10 32 -5 3 -11 23 -14 43 -3 21 -12 74 -21 118 -8 44 -16 114 -16 155 -1
47 -4 68 -9 55 -5 -13 -13 17 -25 95 -10 63 -24 153 -32 199 -23 138 -22 145
33 169 25 11 59 19 74 18 15 -1 26 2 23 6 -3 4 -1 8 5 8 5 0 17 3 27 7 13 5
15 3 9 -7 -6 -10 -1 -12 23 -7 l32 7 0 -45 c0 -38 3 -45 19 -45 30 0 32 13 12
56 -19 39 -19 39 2 51 52 29 87 10 87 -49 0 -31 4 -38 20 -38 24 0 26 28 5 70
-17 33 -8 40 51 40 34 0 34 0 34 -45 0 -38 3 -45 19 -45 25 0 37 18 22 33 -6
6 -11 23 -11 39 0 23 5 28 35 34 37 7 58 24 29 24 -10 0 -15 3 -11 6 3 3 15 3
28 -1 12 -4 17 -10 11 -14 -6 -3 -8 -26 -5 -54 5 -38 9 -47 25 -47 16 0 19 4
13 23 -23 74 -17 87 43 87 31 0 32 -2 32 -39 0 -42 9 -55 33 -45 13 5 13 10
-1 45 -8 21 -13 41 -11 43 2 2 23 6 47 10 l42 6 0 -46 c0 -41 2 -45 23 -42 17
2 21 8 19 28 -2 14 -9 31 -15 38 -14 18 1 29 51 35 l42 5 0 -45 c0 -37 3 -44
18 -41 18 4 21 24 9 69 -7 26 -5 27 36 31 23 3 46 3 51 0 4 -2 6 -24 2 -48 -5
-39 -4 -44 15 -44 26 0 34 23 20 62 -10 28 -9 35 6 45 24 18 32 16 37 -9z
m-249 2 c13 -6 15 -9 5 -9 -8 0 -22 4 -30 9 -18 12 -2 12 25 0z m-95 -26 c0
-2 -7 -4 -15 -4 -8 0 -15 4 -15 10 0 5 7 7 15 4 8 -4 15 -8 15 -10z m-3014
-178 c8 -69 8 -73 -7 -60 -26 23 -45 100 -29 119 7 8 16 15 19 15 4 0 11 -33
17 -74z m3423 -30 c2 -45 -6 -27 -12 29 -4 34 -3 42 3 25 4 -14 8 -38 9 -54z
m-3244 -796 c3 -5 1 -10 -4 -10 -6 0 -11 5 -11 10 0 6 2 10 4 10 3 0 8 -4 11
-10z m118 3 c-7 -2 -21 -2 -30 0 -10 3 -4 5 12 5 17 0 24 -2 18 -5z m2184 -23
c21 -11 53 -23 73 -26 106 -17 201 -38 246 -55 60 -23 83 -53 134 -174 41 -99
58 -169 62 -260 l3 -69 -85 -47 c-47 -26 -115 -55 -152 -64 -65 -17 -67 -16
-160 9 -69 19 -99 32 -116 52 -16 18 -20 30 -13 37 6 6 -4 17 -32 31 -64 33
-75 94 -18 99 33 2 25 15 -11 19 -27 2 -37 10 -52 41 -23 48 -11 83 31 90 l28
4 -31 2 c-17 0 -39 10 -49 21 -22 24 -22 77 -1 98 18 18 130 41 211 43 55 1
57 2 25 9 -19 5 -53 12 -74 15 -53 9 -96 52 -96 98 0 54 17 60 77 27z m-2177
0 c0 -5 -17 -9 -37 -9 l-38 2 35 7 c19 4 36 8 38 9 1 0 2 -3 2 -9z m-13 -26
c-3 -3 -12 -4 -19 -1 -8 3 -5 6 6 6 11 1 17 -2 13 -5z m108 -33 c3 -5 1 -12
-5 -16 -5 -3 -10 1 -10 9 0 18 6 21 15 7z m2497 -43 c63 -83 130 -254 168
-432 18 -80 19 -100 9 -107 -25 -15 -36 11 -43 96 -4 46 -16 117 -27 157 -21
74 -89 226 -129 286 -12 17 -18 32 -12 32 5 0 21 -15 34 -32z m-2405 -4 c-3
-3 -12 -4 -19 -1 -8 3 -5 6 6 6 11 1 17 -2 13 -5z m703 -74 c0 -5 -4 -10 -10
-10 -5 0 -10 5 -10 10 0 6 5 10 10 10 6 0 10 -4 10 -10z m40 -65 c8 19 9 19 9
-2 1 -33 -27 -29 -32 5 -3 22 -4 21 -3 -6 0 -19 -6 -37 -14 -42 -12 -8 -11
-10 7 -10 12 0 24 6 26 13 3 7 6 5 6 -5 1 -10 -5 -18 -11 -19 -7 0 -3 -5 10
-11 22 -11 31 -38 11 -38 -5 0 -8 4 -5 9 3 5 -10 8 -29 7 -19 -1 -36 2 -38 7
-1 5 -3 -11 -5 -36 -1 -24 -6 -57 -12 -72 -6 -15 -8 -30 -5 -33 3 -4 8 4 12
16 3 12 9 22 13 22 5 0 6 -9 3 -20 -4 -16 -1 -20 18 -19 13 0 18 3 12 6 -19 7
-16 23 5 24 16 1 16 2 0 6 -10 2 -18 9 -18 14 0 6 -4 7 -10 4 -6 -4 -10 6 -10
22 l1 28 17 -28 c13 -22 23 -27 42 -23 14 3 19 3 13 0 -15 -7 -17 -34 -3 -34
6 0 6 -9 0 -25 -5 -14 -6 -25 -2 -25 21 0 -10 -859 -31 -872 -9 -6 -8 -8 1 -8
10 0 12 -10 8 -37 -3 -21 -8 -87 -11 -148 -4 -60 -13 -177 -21 -260 -8 -82
-19 -215 -25 -295 -5 -80 -13 -159 -18 -177 -5 -18 -7 -43 -5 -55 4 -21 4 -21
-5 -3 l-9 20 -4 -20 c-3 -11 -3 -9 -1 5 2 14 8 43 13 65 13 56 12 115 -1 115
-6 0 -13 -9 -16 -20 -3 -11 -9 -20 -15 -20 -5 0 -3 10 3 23 7 12 12 24 11 27
0 3 6 4 14 2 8 -2 14 4 14 12 0 8 3 21 6 30 3 9 1 16 -4 16 -6 0 -13 -8 -15
-17 -2 -10 -3 -6 -2 10 1 16 -3 27 -11 27 -8 0 -11 6 -7 16 5 15 7 15 15 0 14
-25 28 -19 28 12 0 19 -3 23 -9 13 -5 -8 -7 13 -4 53 5 62 5 66 -16 66 -11 0
-21 5 -21 11 0 5 -5 7 -12 3 -9 -6 -9 -9 0 -12 26 -8 10 -22 -25 -21 -21 1
-30 3 -20 6 9 2 17 11 17 19 0 17 -26 19 -33 2 -4 -10 -6 -10 -6 -1 -1 7 8 20
18 30 16 15 19 27 14 61 -3 23 -9 42 -13 42 -11 0 -21 -44 -11 -48 5 -2 7 -11
4 -21 -3 -14 -13 -18 -34 -17 -42 3 -48 16 -8 17 19 1 26 3 16 6 -12 3 -16 10
-13 20 4 9 -1 17 -13 20 -12 3 -17 11 -14 19 3 8 -1 14 -11 14 -12 0 -15 6
-11 23 2 12 -2 36 -10 52 l-15 30 4 -30 c1 -16 1 -24 -1 -17 -3 6 -9 12 -14
12 -12 0 -12 47 0 54 5 3 11 32 14 63 3 32 8 69 11 83 4 14 7 40 7 58 1 17 6
32 11 32 6 0 8 7 4 15 -3 8 -1 15 5 15 6 0 7 5 4 10 -3 6 -3 30 1 55 5 38 10
45 29 45 13 0 30 7 39 15 8 8 21 15 30 15 8 0 17 4 21 10 3 5 11 8 18 6 7 -1
9 -1 4 1 -4 3 -5 8 -2 12 2 5 -7 6 -20 3 -14 -2 -22 -8 -19 -13 6 -11 1 -11
-20 -3 -21 8 -21 34 0 34 8 0 13 4 9 10 -8 13 -33 1 -37 -18 -2 -10 2 -21 9
-27 9 -8 8 -13 -5 -25 -14 -13 -15 -12 -9 3 5 13 1 17 -14 17 -13 0 -18 4 -13
12 5 7 9 19 10 28 1 8 4 41 8 72 3 31 15 101 25 155 10 54 25 131 32 171 9 54
16 72 28 72 10 0 12 3 5 8 -13 8 -14 42 -2 42 5 0 7 20 5 45 -5 42 4 58 18 35
4 -6 11 -7 17 -4 7 5 2 11 -11 16 -18 6 -22 13 -16 31 3 12 8 35 11 50 2 15 9
56 15 90 5 34 13 82 16 107 3 25 12 54 20 65 14 19 15 19 8 -4 -5 -16 -4 -21
4 -17 6 4 11 20 11 36 0 43 24 44 29 1 3 -30 5 -33 11 -16z m781 8 c1 -10 5
-79 9 -153 l8 -135 -2 153 -2 152 52 0 52 0 6 -67 c13 -156 16 -234 31 -1023
3 -135 5 -591 5 -1014 1 -816 2 -793 -45 -781 -11 2 -30 5 -42 5 l-23 0 0 700
c0 385 -3 700 -7 700 -5 0 -8 -307 -7 -683 1 -375 -2 -691 -6 -702 -7 -18 -17
-20 -124 -22 -96 -1 -118 1 -123 14 -5 12 -7 12 -14 1 -6 -8 -9 3 -10 32 0 25
-3 54 -5 65 -8 31 -8 697 0 895 3 96 11 456 16 800 10 586 23 974 37 1040 5
27 9 29 57 33 126 9 136 8 137 -10z m263 -80 c4 -54 9 -132 13 -173 7 -75 11
-2531 4 -2583 -3 -25 -6 -27 -52 -27 l-49 0 0 293 c0 580 -26 2233 -38 2465
l-7 122 62 0 61 0 6 -97z m40 -43 c1 -30 5 -61 10 -68 9 -15 7 -1310 -3 -2147
-6 -481 -8 -406 -9 600 -2 1048 -5 1420 -16 1545 -5 61 -8 162 -6 180 4 29 22
-56 24 -110z m-1119 1 c-3 -5 -1 -12 5 -16 5 -3 10 1 10 10 0 9 5 13 10 10 6
-4 8 -15 5 -26 -5 -15 -3 -18 12 -13 15 6 15 5 -2 -9 -18 -14 -21 -14 -27 1
-4 9 -7 13 -8 7 0 -5 -5 -2 -11 8 -9 16 -5 37 7 37 3 0 3 -4 -1 -9z m1646
-368 c-47 -13 -107 -25 -133 -26 -26 -2 -50 -6 -54 -10 -13 -13 -24 -7 -24 13
0 11 -4 20 -10 20 -5 0 -10 -9 -10 -19 0 -11 -9 -23 -21 -26 -26 -9 -14 -22
26 -28 21 -3 16 -4 -17 -6 -36 -1 -49 3 -56 17 -13 23 -22 92 -14 92 9 0 37
-32 45 -51 4 -11 6 -11 6 2 1 8 -5 21 -11 28 -11 10 -5 11 27 4 49 -10 130
-10 170 0 17 4 56 13 88 19 31 7 57 17 58 23 0 5 4 1 8 -10 7 -18 0 -22 -78
-42z m1193 41 c11 -28 6 -38 -9 -18 -8 10 -15 22 -15 27 0 13 18 7 24 -9z
m-1105 -48 c-2 -2 -17 -6 -34 -10 -22 -5 -26 -4 -15 4 14 9 59 15 49 6z m-74
-15 c-9 -8 -100 -32 -175 -46 -23 -5 -24 -5 -5 7 15 9 124 37 185 47 2 1 0 -3
-5 -8z m1065 -21 c0 -11 -4 -20 -10 -20 -5 0 -10 9 -10 20 0 11 5 20 10 20 6
0 10 -9 10 -20z m-1390 -31 c0 -6 -4 -7 -10 -4 -5 3 -10 11 -10 16 0 6 5 7 10
4 6 -3 10 -11 10 -16z m956 -43 c7 -8 23 -12 34 -9 14 4 20 0 20 -10 0 -10 6
-13 20 -10 11 3 20 0 20 -6 0 -14 -47 -15 -55 -1 -3 6 -13 10 -21 10 -8 0 -24
9 -36 20 -13 11 -16 20 -9 20 7 0 19 -6 27 -14z m334 -16 c0 -5 -10 -10 -22
-9 -22 0 -22 1 -3 9 11 5 21 9 23 9 1 1 2 -3 2 -9z m-124 -16 c-3 -9 -6 -22
-6 -30 0 -8 -4 -14 -8 -14 -5 0 -9 14 -9 30 0 19 5 30 15 30 9 0 12 -6 8 -16z
m-61 -4 c3 -5 -3 -10 -15 -10 -12 0 -18 5 -15 10 3 6 10 10 15 10 5 0 12 -4
15 -10z m178 -17 c-7 -2 -19 -2 -25 0 -7 3 -2 5 12 5 14 0 19 -2 13 -5z m-466
-9 c-3 -3 -12 -4 -19 -1 -8 3 -5 6 6 6 11 1 17 -2 13 -5z m73 -25 c0 -5 -9 -4
-19 3 -11 7 -17 16 -14 20 5 10 33 -10 33 -23z m147 25 c-3 -3 -12 -4 -19 -1
-8 3 -5 6 6 6 11 1 17 -2 13 -5z m166 -8 c4 -10 1 -13 -9 -9 -7 3 -14 9 -14
14 0 14 17 10 23 -5z m-359 -37 c-3 -6 -7 -9 -8 -7 -1 2 -8 12 -16 22 -14 18
-14 19 8 7 12 -7 20 -17 16 -22z m293 -11 c-3 -8 -6 -5 -6 6 -1 11 2 17 5 13
3 -3 4 -12 1 -19z m-1011 -34 c4 -15 5 -443 2 -953 -2 -509 -1 -1059 3 -1221
14 -599 14 -585 -10 -588 -20 -3 -21 1 -22 85 0 48 -2 113 -4 143 -17 223 -25
961 -19 1708 7 815 8 852 25 852 12 0 21 -10 25 -26z m851 0 c-3 -3 -12 -4
-19 -1 -8 3 -5 6 6 6 11 1 17 -2 13 -5z m-2507 -258 c0 -3 -4 -8 -10 -11 -5
-3 -10 -1 -10 4 0 6 5 11 10 11 6 0 10 -2 10 -4z m1984 -129 c8 -7 17 -24 21
-37 4 -13 8 -373 8 -799 0 -723 5 -1023 22 -1394 6 -141 6 -149 -12 -145 -14
3 -19 16 -24 68 -10 98 -21 311 -29 545 -8 260 -13 1775 -4 1775 3 0 11 -6 18
-13z m86 -127 c8 -19 17 -37 20 -40 11 -8 210 -403 210 -416 0 -3 9 -19 21
-35 11 -16 17 -29 14 -29 -4 0 1 -7 9 -16 9 -8 14 -20 11 -25 -4 -5 1 -9 9 -9
9 0 16 -7 16 -15 0 -8 -4 -15 -10 -15 -5 0 -10 -5 -10 -11 0 -8 5 -8 15 1 8 7
22 10 30 6 9 -3 13 -2 10 4 -3 6 -2 10 4 10 5 0 12 -9 16 -19 6 -20 6 -20 26
0 24 24 39 24 39 1 0 -21 22 -72 31 -72 8 0 33 30 28 33 -2 1 -13 7 -24 13
-25 14 -31 40 -12 47 9 3 14 -1 13 -10 -1 -17 29 -41 40 -30 4 3 1 13 -6 22
-8 10 -9 15 -1 15 6 0 11 -4 11 -10 0 -5 4 -10 10 -10 5 0 7 8 3 18 -5 14 -3
15 8 5 7 -7 25 -13 41 -13 22 0 26 -4 21 -17 -4 -11 -8 -12 -11 -5 -4 13 -32
17 -32 4 0 -4 5 -13 12 -20 9 -9 8 -12 -5 -12 -9 0 -17 5 -17 10 0 6 -7 10
-16 10 -10 0 -13 -6 -10 -18 4 -13 -2 -21 -25 -29 -35 -14 -59 -8 -60 16 -1
14 -2 14 -6 -1 -2 -10 -11 -18 -18 -18 -9 0 -12 -6 -8 -16 4 -12 2 -15 -8 -12
-8 3 -13 11 -11 18 2 8 -5 10 -22 6 -28 -7 -75 7 -58 18 12 7 5 36 -9 36 -5 0
-9 -9 -9 -20 0 -11 -5 -20 -11 -20 -5 0 -7 -5 -3 -12 5 -7 0 -9 -14 -6 -15 4
-23 0 -28 -14 -6 -21 6 -41 13 -20 8 21 21 13 21 -13 0 -15 -6 -25 -14 -25 -8
0 -14 4 -14 10 0 6 -10 6 -27 -1 -26 -10 -43 0 -43 26 0 6 4 4 9 -4 13 -21 41
3 34 29 -4 14 1 21 21 26 31 7 35 24 6 24 -11 0 -20 5 -20 10 0 6 7 10 15 10
8 0 15 5 15 10 0 6 -4 10 -9 10 -6 0 -13 -4 -16 -10 -8 -12 -25 -13 -25 -2 0
5 10 14 23 21 22 11 22 11 -3 5 -22 -6 -23 -5 -12 9 8 9 9 18 4 21 -20 12 -31
-61 -13 -80 6 -5 6 -24 1 -44 -4 -19 -8 -27 -9 -17 -1 24 -20 21 -46 -8 -18
-19 -24 -21 -29 -10 -3 8 3 20 13 27 10 7 20 29 24 48 3 19 8 44 12 55 6 17 3
16 -15 -4 -17 -20 -23 -22 -30 -11 -5 8 -12 11 -17 7 -4 -5 -2 -11 4 -15 17
-10 28 -62 14 -62 -12 0 -56 43 -79 76 -7 10 -10 14 -7 7 3 -6 1 -14 -5 -18
-6 -4 -10 12 -10 41 0 26 -3 44 -7 41 -3 -4 -6 -25 -5 -47 1 -22 -3 -40 -8
-40 -12 0 -12 -13 -14 363 -2 169 0 304 4 300 4 -4 13 -24 20 -43z m-2173
-267 c-3 -10 -5 -2 -5 17 0 19 2 27 5 18 2 -10 2 -26 0 -35z m43 -35 c0 -4 -9
-5 -20 -3 -13 2 -20 -2 -20 -11 0 -8 5 -14 11 -14 6 0 9 -7 5 -15 -3 -9 0 -15
9 -15 8 0 15 -7 15 -15 0 -21 -13 -19 -28 5 -7 12 -17 18 -22 15 -17 -11 -11
45 7 69 16 21 19 22 30 7 7 -9 13 -19 13 -23z m8 -32 c-7 -8 -15 -12 -17 -11
-5 6 10 25 20 25 5 0 4 -6 -3 -14z m22 -52 c0 -8 -5 -12 -10 -9 -6 4 -8 11 -5
16 9 14 15 11 15 -7z m34 -29 c-4 -8 -1 -15 5 -15 6 0 11 -9 11 -20 0 -11 -5
-20 -11 -20 -6 0 -9 7 -6 15 4 8 2 17 -3 20 -13 8 -13 35 0 35 5 0 7 -7 4 -15z
m-87 -17 c-3 -8 -6 -5 -6 6 -1 11 2 17 5 13 3 -3 4 -12 1 -19z m-42 -13 c0
-14 -3 -25 -7 -25 -10 0 -10 34 -1 43 3 4 7 7 7 7 1 0 1 -11 1 -25z m255 -30
c0 -23 -8 -44 -21 -58 -20 -20 -21 -21 -14 -2 4 11 9 31 11 45 4 22 3 23 -5 5
-8 -19 -9 -19 -16 -2 -6 14 -10 15 -21 6 -8 -7 -17 -9 -20 -6 -9 8 4 39 13 34
5 -3 17 -1 28 4 37 15 45 10 45 -26z m2667 -7 c-3 -8 -6 -5 -6 6 -1 11 2 17 5
13 3 -3 4 -12 1 -19z m-77 2 c-13 -9 -11 -13 9 -30 33 -28 22 -34 -18 -9 -27
16 -31 22 -21 34 7 8 20 15 29 15 14 0 14 -2 1 -10z m-2643 -36 c-3 -3 -12 -4
-19 -1 -8 3 -5 6 6 6 11 1 17 -2 13 -5z m2586 -15 c-4 -13 -9 -17 -15 -11 -11
11 -3 32 12 32 4 0 6 -9 3 -21z m-2803 -42 c0 -5 -4 -5 -10 -2 -5 3 -10 14
-10 23 0 15 2 15 10 2 5 -8 10 -19 10 -23z m2835 23 c-3 -5 -10 -10 -16 -10
-5 0 -9 5 -9 10 0 6 7 10 16 10 8 0 12 -4 9 -10z m95 0 c0 -5 -5 -10 -11 -10
-5 0 -7 5 -4 10 3 6 8 10 11 10 2 0 4 -4 4 -10z m-2720 -20 c0 -5 -4 -10 -10
-10 -5 0 -10 5 -10 10 0 6 5 10 10 10 6 0 10 -4 10 -10z m2580 -10 c0 -5 -4
-10 -10 -10 -5 0 -10 5 -10 10 0 6 5 10 10 10 6 0 10 -4 10 -10z m-2546 -42
c-4 -34 -5 -35 -13 -8 -8 27 -4 43 8 36 4 -3 7 -15 5 -28z m-166 2 c-7 -10
-14 -18 -15 -16 -6 6 9 36 18 36 5 0 4 -9 -3 -20z m2791 -12 c-7 -13 -14 -18
-16 -11 -3 7 2 19 9 27 18 20 22 12 7 -16z m-2749 12 c0 -5 -5 -10 -11 -10 -5
0 -7 5 -4 10 3 6 8 10 11 10 2 0 4 -4 4 -10z m47 -22 c-3 -8 -6 -5 -6 6 -1 11
2 17 5 13 3 -3 4 -12 1 -19z m2659 -15 c-11 -11 -19 6 -11 24 8 17 8 17 12 0
3 -10 2 -21 -1 -24z m-586 7 c0 -5 -4 -10 -10 -10 -5 0 -10 5 -10 10 0 6 5 10
10 10 6 0 10 -4 10 -10z m30 -14 c0 -8 6 -17 13 -19 6 -3 2 -6 -10 -6 -24 -1
-38 13 -28 29 9 15 25 12 25 -4z m485 -16 c-19 -9 -19 -9 3 -16 12 -3 22 -10
22 -15 0 -14 -18 -11 -47 8 -23 16 -24 17 -7 24 27 11 54 10 29 -1z m-2488
-37 c-3 -10 -5 -4 -5 12 0 17 2 24 5 18 2 -7 2 -21 0 -30z m2414 12 c11 4 19
2 19 -5 0 -7 -13 -10 -32 -8 -23 2 -34 9 -36 22 -4 19 -3 19 13 2 10 -10 25
-14 36 -11z m-111 -12 c0 -7 5 -13 10 -13 6 0 10 -8 9 -17 0 -15 -3 -14 -16 5
-9 12 -26 22 -39 22 -13 0 -24 4 -24 10 0 5 13 8 30 7 16 -1 30 -8 30 -14z
m360 3 c0 -3 -4 -8 -10 -11 -5 -3 -10 -1 -10 4 0 6 5 11 10 11 6 0 10 -2 10
-4z m-175 -39 c16 -4 14 -5 -6 -6 -20 -1 -28 5 -32 22 -5 19 -4 20 6 6 7 -9
21 -19 32 -22z m-472 17 c10 -10 -5 -34 -22 -34 -14 0 -14 2 -1 10 10 6 11 10
3 10 -7 0 -13 5 -13 10 0 11 23 14 33 4z m210 -19 c-7 -21 -13 -19 -13 6 0 11
4 18 10 14 5 -3 7 -12 3 -20z m137 15 c0 -5 -2 -10 -4 -10 -3 0 -8 5 -11 10
-3 6 -1 10 4 10 6 0 11 -4 11 -10z m50 0 c0 -5 8 -10 17 -10 9 0 14 -2 11 -5
-3 -3 -19 -2 -37 1 -23 5 -29 9 -19 15 18 12 28 11 28 -1z m-443 -6 c-3 -3
-12 -4 -19 -1 -8 3 -5 6 6 6 11 1 17 -2 13 -5z m128 -4 c3 -5 -1 -10 -9 -10
-9 0 -16 5 -16 10 0 6 4 10 9 10 6 0 13 -4 16 -10z m206 -19 c17 -17 28 -35
24 -41 -5 -7 -14 0 -26 20 -22 35 -39 35 -54 2 -5 -12 -14 -22 -18 -22 -5 0
-7 3 -5 8 36 74 36 74 79 33z m-247 -7 c5 -14 4 -15 -9 -4 -17 14 -19 20 -6
20 5 0 12 -7 15 -16z m83 -18 c-3 -19 -1 -37 4 -40 5 -2 4 -3 -3 -2 -7 2 -12
13 -11 25 2 11 -2 21 -8 21 -8 0 -7 5 1 15 19 23 23 18 17 -19z m233 30 c0 -9
-30 -14 -35 -6 -4 6 3 10 14 10 12 0 21 -2 21 -4z m173 -16 c-3 -11 -7 -20 -9
-20 -2 0 -4 9 -4 20 0 11 4 20 9 20 5 0 7 -9 4 -20z m43 5 c-8 -8 -18 -15 -22
-15 -3 0 -1 7 6 15 7 8 17 15 22 15 5 0 3 -7 -6 -15z m-401 -5 c4 -6 11 -8 16
-5 5 4 9 1 9 -5 0 -7 -7 -9 -16 -6 -9 3 -20 6 -25 6 -5 0 -9 5 -9 10 0 13 17
13 25 0z m105 -31 c6 -11 9 -25 6 -32 -2 -7 -5 -4 -5 6 -1 9 -8 17 -16 17 -8
0 -15 7 -15 15 0 22 17 18 30 -6z m-286 -4 c-4 -11 1 -15 17 -16 l24 0 -23
-10 c-15 -6 -30 -5 -43 1 -23 13 -26 22 -4 14 9 -4 15 0 15 10 0 9 4 16 10 16
5 0 7 -7 4 -15z m596 5 c0 -5 -4 -10 -10 -10 -5 0 -10 5 -10 10 0 6 5 10 10
10 6 0 10 -4 10 -10z m-420 -10 c0 -5 -4 -10 -10 -10 -5 0 -10 5 -10 10 0 6 5
10 10 10 6 0 10 -4 10 -10z m40 -10 c0 -5 -8 -10 -17 -10 -15 0 -16 2 -3 10
19 12 20 12 20 0z m193 3 c-7 -2 -19 -2 -25 0 -7 3 -2 5 12 5 14 0 19 -2 13
-5z m-161 -15 c-7 -7 -12 -23 -13 -37 0 -26 0 -26 -11 -4 -11 24 3 53 25 53 7
0 7 -4 -1 -12z m-79 -25 c-7 -2 -21 -2 -30 0 -10 3 -4 5 12 5 17 0 24 -2 18
-5z m142 -31 c-8 -2 -15 -8 -15 -13 0 -5 -7 -9 -15 -9 -8 0 -15 5 -15 11 0 5
4 8 9 4 6 -3 15 4 22 16 9 17 13 19 20 8 6 -9 4 -15 -6 -17z m45 24 c0 -3 -4
-8 -10 -11 -5 -3 -10 -1 -10 4 0 6 5 11 10 11 6 0 10 -2 10 -4z m-433 -38 c-3
-8 -6 -5 -6 6 -1 11 2 17 5 13 3 -3 4 -12 1 -19z m473 13 c0 -5 -9 -11 -19
-14 -14 -3 -18 -1 -14 9 6 15 33 19 33 5z m-243 -17 c-3 -3 -12 -4 -19 -1 -8
3 -5 6 6 6 11 1 17 -2 13 -5z m283 2 c0 -3 -4 -8 -10 -11 -5 -3 -10 -1 -10 4
0 6 5 11 10 11 6 0 10 -2 10 -4z m-165 -26 c3 -5 1 -10 -4 -10 -6 0 -11 5 -11
10 0 6 2 10 4 10 3 0 8 -4 11 -10z m-35 -40 c0 -5 -2 -10 -4 -10 -3 0 -8 5
-11 10 -3 6 -1 10 4 10 6 0 11 -4 11 -10z m-297 -17 c-7 -2 -19 -2 -25 0 -7 3
-2 5 12 5 14 0 19 -2 13 -5z m-1956 -35 c-3 -7 -5 -2 -5 12 0 14 2 19 5 13 2
-7 2 -19 0 -25z m2385 -10 c-7 -7 -12 -8 -12 -2 0 14 12 26 19 19 2 -3 -1 -11
-7 -17z m-32 -32 c0 -2 -7 -7 -16 -10 -8 -3 -12 -2 -9 4 6 10 25 14 25 6z
m-1259 -576 c5 0 9 5 9 10 0 6 9 10 20 10 14 0 20 -7 20 -22 0 -16 -3 -19 -9
-10 -5 9 -17 11 -34 6 -24 -5 -27 -3 -26 17 1 17 3 19 6 7 2 -10 9 -18 14 -18z
m106 8 c-3 -8 -6 -5 -6 6 -1 11 2 17 5 13 3 -3 4 -12 1 -19z m-620 -10 c-3 -8
-6 -5 -6 6 -1 11 2 17 5 13 3 -3 4 -12 1 -19z m167 7 c3 -8 1 -15 -3 -15 -5 0
-11 7 -15 15 -3 8 -1 15 3 15 5 0 11 -7 15 -15z m43 -7 c-3 -8 -6 -5 -6 6 -1
11 2 17 5 13 3 -3 4 -12 1 -19z m133 10 c0 -4 -13 -8 -29 -8 -16 0 -31 -6 -34
-12 -2 -7 -3 -5 -2 5 4 24 -22 21 -35 -4 -14 -25 -24 -18 -15 10 6 19 13 21
61 19 30 -1 54 -6 54 -10z m130 -1 c0 -5 -10 -7 -22 -4 l-23 6 23 -19 c12 -10
22 -21 22 -24 0 -3 -10 -7 -22 -7 l-23 -2 23 -4 c17 -3 22 -11 22 -34 0 -29 0
-29 -55 -26 -53 2 -55 3 -55 30 0 21 5 27 23 28 21 2 21 2 1 6 -15 3 -21 12
-22 34 -1 29 -1 29 54 28 30 -1 54 -6 54 -12z m127 7 c-3 -3 -12 -4 -19 -1 -8
3 -5 6 6 6 11 1 17 -2 13 -5z m-92 -65 c-4 -5 -1 -9 4 -9 6 0 11 8 12 18 0 11
2 12 6 4 3 -7 -1 -20 -8 -28 -10 -13 -10 -17 2 -25 8 -5 24 -9 36 -9 12 0 25
-5 29 -12 5 -8 0 -9 -17 -5 -13 4 -36 7 -51 7 -26 0 -28 3 -28 41 0 25 4 38
10 34 6 -4 8 -11 5 -16z m-165 1 c0 -5 -4 -10 -10 -10 -5 0 -10 5 -10 10 0 6
5 10 10 10 6 0 10 -4 10 -10z m250 0 c0 -5 -4 -10 -10 -10 -5 0 -10 5 -10 10
0 6 5 10 10 10 6 0 10 -4 10 -10z m-360 -20 c0 -5 -2 -10 -4 -10 -3 0 -8 5
-11 10 -3 6 -1 10 4 10 6 0 11 -4 11 -10z m94 -6 c17 -7 22 -34 6 -34 -5 0
-10 7 -10 16 0 8 -4 12 -10 9 -5 -3 -10 -1 -10 4 0 13 3 13 24 5z m-119 -14
c3 -5 1 -10 -4 -10 -6 0 -11 5 -11 10 0 6 2 10 4 10 3 0 8 -4 11 -10z m65 0
c-20 -13 -33 -13 -25 0 3 6 14 10 23 10 15 0 15 -2 2 -10z"/>
<path d="M4721 8964 c0 -11 3 -14 6 -6 3 7 2 16 -1 19 -3 4 -6 -2 -5 -13z"/>
<path d="M4902 8930 c0 -19 2 -27 5 -17 2 9 2 25 0 35 -3 9 -5 1 -5 -18z"/>
<path d="M4922 8835 c0 -16 2 -22 5 -12 2 9 2 23 0 30 -3 6 -5 -1 -5 -18z"/>
<path d="M5580 8850 c-13 -8 -12 -10 3 -10 9 0 17 5 17 10 0 12 -1 12 -20 0z"/>
<path d="M5431 8824 c0 -11 3 -14 6 -6 3 7 2 16 -1 19 -3 4 -6 -2 -5 -13z"/>
<path d="M5284 7952 c-58 -21 -104 -48 -104 -62 0 -5 15 -1 33 9 86 50 286 68
407 37 66 -17 78 -12 24 10 -27 12 -79 18 -174 21 -113 3 -143 1 -186 -15z"/>
<path d="M4046 7901 c5 -4 41 -13 79 -19 39 -6 96 -20 128 -30 68 -23 61 -5
-11 26 -46 20 -215 39 -196 23z"/>
<path d="M6335 7558 c-38 -40 -39 -40 -7 -19 26 19 61 61 49 61 -1 0 -21 -19
-42 -42z"/>
<path d="M6208 7139 c-22 -13 -23 -42 -2 -60 11 -9 20 -10 32 -3 23 15 25 28
5 52 -14 17 -22 19 -35 11z"/>
<path d="M4725 6870 c3 -5 21 -10 38 -9 31 1 31 1 7 9 -36 11 -52 11 -45 0z"/>
<path d="M5340 7490 c0 -5 5 -10 11 -10 5 0 7 5 4 10 -3 6 -8 10 -11 10 -2 0
-4 -4 -4 -10z"/>
<path d="M5701 5536 c-1 -11 -6 -16 -15 -13 -8 3 -19 0 -25 -7 -8 -10 -5 -18
10 -32 21 -19 21 -19 17 1 -2 11 3 25 11 31 7 6 11 17 8 25 -4 10 -6 9 -6 -5z
m-24 -31 c0 -8 -4 -12 -9 -9 -5 3 -6 10 -3 15 9 13 12 11 12 -6z"/>
<path d="M5655 5439 c-45 -39 -46 -58 -2 -25 19 15 39 26 44 26 6 0 13 7 17
15 9 25 -21 17 -59 -16z"/>
<path d="M5594 5358 l-19 -23 23 19 c21 18 27 26 19 26 -2 0 -12 -10 -23 -22z"/>
<path d="M5440 5320 c0 -6 7 -10 15 -10 8 0 15 2 15 4 0 2 -7 6 -15 10 -8 3
-15 1 -15 -4z"/>
<path d="M5525 5310 c3 -5 12 -10 20 -10 8 0 17 5 20 10 4 6 -5 10 -20 10 -15
0 -24 -4 -20 -10z"/>
<path d="M4920 6065 c0 -16 6 -25 15 -25 16 0 19 9 9 34 -9 25 -24 19 -24 -9z"/>
<path d="M4811 5902 c0 -13 -6 -33 -12 -45 -9 -20 -9 -20 4 -5 8 10 16 16 18
14 2 -2 31 -6 64 -9 52 -5 56 -5 25 5 -70 20 -89 30 -93 46 -3 11 -5 9 -6 -6z"/>
<path d="M4830 5780 c0 -5 6 -10 14 -10 8 0 18 5 21 10 3 6 -3 10 -14 10 -12
0 -21 -4 -21 -10z"/>
<path d="M4820 5740 c0 -5 5 -10 10 -10 6 0 10 5 10 10 0 6 -4 10 -10 10 -5 0
-10 -4 -10 -10z"/>
<path d="M4851 5444 c0 -11 3 -14 6 -6 3 7 2 16 -1 19 -3 4 -6 -2 -5 -13z"/>
<path d="M4180 5590 c0 -5 5 -10 10 -10 6 0 10 5 10 10 0 6 -4 10 -10 10 -5 0
-10 -4 -10 -10z"/>
<path d="M3658 4713 c7 -3 16 -2 19 1 4 3 -2 6 -13 5 -11 0 -14 -3 -6 -6z"/>
<path d="M6711 5020 c0 -8 4 -22 9 -30 12 -18 12 -2 0 25 -6 13 -9 15 -9 5z"/>
<path d="M6595 4910 c12 -41 27 -60 20 -25 -4 17 -11 35 -17 40 -7 7 -8 2 -3
-15z"/>
<path d="M6631 4835 c0 -19 48 -119 49 -102 0 4 -7 22 -17 40 -9 17 -19 43
-24 57 -6 20 -7 21 -8 5z"/>
<path d="M6686 4700 c3 -14 8 -35 11 -47 3 -13 9 -23 14 -23 12 0 10 9 -12 55
-11 23 -17 29 -13 15z"/>
<path d="M6720 4615 c0 -5 5 -17 10 -25 5 -8 10 -10 10 -5 0 6 -5 17 -10 25
-5 8 -10 11 -10 5z"/>
<path d="M6746 4557 c3 -10 9 -15 12 -12 3 3 0 11 -7 18 -10 9 -11 8 -5 -6z"/>
<path d="M6760 4515 c0 -5 5 -17 10 -25 5 -8 10 -10 10 -5 0 6 -5 17 -10 25
-5 8 -10 11 -10 5z"/>
<path d="M5555 3870 c-3 -5 -2 -10 4 -10 5 0 13 5 16 10 3 6 2 10 -4 10 -5 0
-13 -4 -16 -10z"/>
<path d="M6755 3421 c-3 -5 -1 -12 5 -16 5 -3 10 1 10 9 0 18 -6 21 -15 7z"/>
<path d="M6695 3400 c-3 -5 -1 -10 4 -10 6 0 11 5 11 10 0 6 -2 10 -4 10 -3 0
-8 -4 -11 -10z"/>
<path d="M6616 3375 c-3 -8 -1 -15 4 -15 6 0 10 7 10 15 0 8 -2 15 -4 15 -2 0
-6 -7 -10 -15z"/>
<path d="M6715 3370 c-3 -5 -1 -10 4 -10 6 0 11 5 11 10 0 6 -2 10 -4 10 -3 0
-8 -4 -11 -10z"/>
<path d="M6591 3344 c0 -11 3 -14 6 -6 3 7 2 16 -1 19 -3 4 -6 -2 -5 -13z"/>
<path d="M6690 3340 c0 -5 7 -10 15 -10 8 0 15 5 15 10 0 6 -7 10 -15 10 -8 0
-15 -4 -15 -10z"/>
<path d="M6329 3323 c-13 -17 -13 -17 6 -3 11 8 22 16 24 17 2 2 0 3 -6 3 -6
0 -17 -8 -24 -17z"/>
<path d="M6530 3329 c0 -5 5 -7 10 -4 6 3 10 8 10 11 0 2 -4 4 -10 4 -5 0 -10
-5 -10 -11z"/>
<path d="M6633 3330 c2 -8 14 -16 28 -17 19 -1 20 -1 4 4 -11 3 -24 10 -28 17
-6 7 -7 6 -4 -4z"/>
<path d="M6732 3329 c2 -7 10 -15 17 -17 8 -3 12 1 9 9 -2 7 -10 15 -17 17 -8
3 -12 -1 -9 -9z"/>
<path d="M6690 3284 c-14 -8 -18 -13 -10 -13 24 1 55 15 44 21 -5 2 -20 -1
-34 -8z"/>
<path d="M6457 3279 c7 -7 15 -10 18 -7 3 3 -2 9 -12 12 -14 6 -15 5 -6 -5z"/>
<path d="M6535 3281 c-3 -5 -2 -12 3 -15 5 -3 9 1 9 9 0 17 -3 19 -12 6z"/>
<path d="M6348 3273 c7 -3 16 -2 19 1 4 3 -2 6 -13 5 -11 0 -14 -3 -6 -6z"/>
<path d="M6390 3265 c0 -5 5 -17 10 -25 5 -8 10 -10 10 -5 0 6 -5 17 -10 25
-5 8 -10 11 -10 5z"/>
<path d="M6615 3260 c4 -6 11 -8 16 -5 14 9 11 15 -7 15 -8 0 -12 -5 -9 -10z"/>
<path d="M6685 3250 c-4 -6 3 -10 14 -10 25 0 27 6 6 13 -8 4 -17 2 -20 -3z"/>
<path d="M6500 3239 c0 -5 5 -7 10 -4 6 3 10 8 10 11 0 2 -4 4 -10 4 -5 0 -10
-5 -10 -11z"/>
<path d="M6591 3229 c-13 -5 -22 -12 -19 -14 6 -6 58 12 58 20 0 7 -11 5 -39
-6z"/>
<path d="M6310 3219 c0 -5 5 -7 10 -4 6 3 10 8 10 11 0 2 -4 4 -10 4 -5 0 -10
-5 -10 -11z"/>
<path d="M6536 3214 c-5 -14 -4 -15 9 -4 17 14 19 20 6 20 -5 0 -12 -7 -15
-16z"/>
<path d="M6355 3200 c28 -12 37 -12 30 0 -3 6 -16 10 -28 9 -21 0 -21 -1 -2
-9z"/>
<path d="M6605 3200 c-8 -13 5 -13 25 0 13 8 13 10 -2 10 -9 0 -20 -4 -23 -10z"/>
<path d="M6560 3189 c0 -5 5 -7 10 -4 6 3 10 8 10 11 0 2 -4 4 -10 4 -5 0 -10
-5 -10 -11z"/>
<path d="M5930 3160 c0 -5 5 -10 10 -10 6 0 10 5 10 10 0 6 -4 10 -10 10 -5 0
-10 -4 -10 -10z"/>
<path d="M5970 3160 c0 -5 5 -10 10 -10 6 0 10 5 10 10 0 6 -4 10 -10 10 -5 0
-10 -4 -10 -10z"/>
<path d="M6210 3150 c0 -6 7 -10 15 -10 8 0 15 2 15 4 0 2 -7 6 -15 10 -8 3
-15 1 -15 -4z"/>
<path d="M6250 3140 c0 -5 5 -10 10 -10 6 0 10 5 10 10 0 6 -4 10 -10 10 -5 0
-10 -4 -10 -10z"/>
<path d="M6290 3140 c0 -5 5 -10 10 -10 6 0 10 5 10 10 0 6 -4 10 -10 10 -5 0
-10 -4 -10 -10z"/>
<path d="M6330 3130 c0 -5 5 -10 10 -10 6 0 10 5 10 10 0 6 -4 10 -10 10 -5 0
-10 -4 -10 -10z"/>
<path d="M5891 3104 c0 -11 3 -14 6 -6 3 7 2 16 -1 19 -3 4 -6 -2 -5 -13z"/>
<path d="M6108 3113 c6 -2 18 -2 25 0 6 3 1 5 -13 5 -14 0 -19 -2 -12 -5z"/>
<path d="M6240 3109 c0 -5 5 -7 10 -4 6 3 10 8 10 11 0 2 -4 4 -10 4 -5 0 -10
-5 -10 -11z"/>
<path d="M6210 3095 c0 -8 5 -15 10 -15 6 0 10 7 10 15 0 8 -4 15 -10 15 -5 0
-10 -7 -10 -15z"/>
<path d="M6320 3094 c0 -8 5 -12 10 -9 6 4 8 11 5 16 -9 14 -15 11 -15 -7z"/>
<path d="M6381 3079 c-13 -10 -19 -19 -14 -19 13 0 49 27 43 33 -3 3 -16 -3
-29 -14z"/>
<path d="M6080 3080 c0 -5 5 -10 10 -10 6 0 10 5 10 10 0 6 -4 10 -10 10 -5 0
-10 -4 -10 -10z"/>
<path d="M6140 3080 c0 -5 5 -10 10 -10 6 0 10 5 10 10 0 6 -4 10 -10 10 -5 0
-10 -4 -10 -10z"/>
<path d="M6241 3074 c0 -11 3 -14 6 -6 3 7 2 16 -1 19 -3 4 -6 -2 -5 -13z"/>
<path d="M6476 3081 c-4 -7 -5 -15 -2 -18 9 -9 19 4 14 18 -4 11 -6 11 -12 0z"/>
<path d="M6030 3060 c0 -11 -7 -20 -15 -20 -9 0 -12 -6 -9 -15 4 -8 10 -15 15
-15 5 0 9 7 9 15 0 8 5 15 10 15 6 0 10 9 10 20 0 11 -4 20 -10 20 -5 0 -10
-9 -10 -20z"/>
<path d="M6170 3071 c0 -6 5 -13 10 -16 6 -3 10 1 10 9 0 9 -4 16 -10 16 -5 0
-10 -4 -10 -9z"/>
<path d="M6212 3048 c3 -7 18 -14 34 -16 21 -2 25 0 14 7 -8 5 -18 7 -22 5 -4
-3 -8 0 -8 5 0 6 -5 11 -11 11 -6 0 -9 -6 -7 -12z"/>
<path d="M2229 5005 c-15 -8 -32 -29 -38 -46 -17 -51 -12 -58 8 -12 11 23 32
48 48 57 15 8 24 15 18 15 -5 0 -22 -6 -36 -14z"/>
<path d="M2786 4156 c10 -8 21 -12 24 -10 5 6 -21 24 -34 24 -6 0 -1 -6 10
-14z"/>
<path d="M2768 4097 c-3 -19 -2 -25 4 -19 6 6 8 18 6 28 -3 14 -5 12 -10 -9z"/>
<path d="M2780 4040 c0 -5 5 -10 10 -10 6 0 10 5 10 10 0 6 -4 10 -10 10 -5 0
-10 -4 -10 -10z"/>
<path d="M3115 3930 c-3 -5 -1 -10 4 -10 6 0 11 5 11 10 0 6 -2 10 -4 10 -3 0
-8 -4 -11 -10z"/>
<path d="M3048 3873 c7 -3 16 -2 19 1 4 3 -2 6 -13 5 -11 0 -14 -3 -6 -6z"/>
<path d="M3128 3843 c7 -3 16 -2 19 1 4 3 -2 6 -13 5 -11 0 -14 -3 -6 -6z"/>
<path d="M3285 3840 c-3 -6 1 -7 9 -4 18 7 21 14 7 14 -6 0 -13 -4 -16 -10z"/>
<path d="M3320 3810 c0 -5 5 -10 10 -10 6 0 10 5 10 10 0 6 -4 10 -10 10 -5 0
-10 -4 -10 -10z"/>
<path d="M3460 3800 c0 -5 -7 -10 -15 -10 -8 0 -15 -6 -15 -12 1 -19 29 -53
37 -45 3 4 -2 13 -12 21 -18 13 -18 14 3 27 23 14 29 29 12 29 -5 0 -10 -4
-10 -10z"/>
<path d="M3488 3763 c7 -3 16 -2 19 1 4 3 -2 6 -13 5 -11 0 -14 -3 -6 -6z"/>
<path d="M5193 4793 c9 -2 23 -2 30 0 6 3 -1 5 -18 5 -16 0 -22 -2 -12 -5z"/>
<path d="M4917 4688 c8 -46 13 -48 13 -5 0 21 -4 37 -10 37 -5 0 -7 -14 -3
-32z"/>
<path d="M5656 4643 c17 -75 25 -103 34 -108 5 -3 6 11 3 32 -9 67 -19 97 -31
101 -9 3 -11 -4 -6 -25z"/>
<path d="M5880 4635 c0 -14 7 -28 16 -32 13 -5 15 -14 10 -45 -5 -30 -3 -39 6
-36 15 5 30 72 25 113 -4 28 -4 29 -12 8 -9 -28 -25 -30 -25 -3 0 11 -4 20
-10 20 -5 0 -10 -11 -10 -25z"/>
<path d="M5524 4615 c4 -22 8 -54 9 -71 0 -25 4 -30 19 -26 22 5 22 10 4 53
-7 19 -12 39 -9 45 2 6 -4 17 -13 25 -15 13 -16 10 -10 -26z"/>
<path d="M5803 4644 c-17 -8 -16 -39 2 -54 24 -20 57 -3 53 28 -3 27 -27 38
-55 26z m37 -30 c0 -8 -4 -14 -10 -14 -5 0 -10 9 -10 21 0 11 5 17 10 14 6 -3
10 -13 10 -21z"/>
<path d="M4932 4610 c0 -14 2 -19 5 -12 2 6 2 18 0 25 -3 6 -5 1 -5 -13z"/>
<path d="M4991 4614 c0 -11 3 -14 6 -6 3 7 2 16 -1 19 -3 4 -6 -2 -5 -13z"/>
<path d="M5717 4612 c-20 -22 -21 -36 -4 -50 8 -7 18 -7 27 -2 13 8 12 10 -2
10 -20 0 -24 15 -7 25 5 4 21 -5 35 -20 26 -29 33 -68 10 -59 -8 3 -17 1 -21
-5 -10 -16 23 -25 40 -11 8 7 15 21 15 32 0 30 -48 98 -70 98 -4 0 -14 -8 -23
-18z"/>
<path d="M5582 4568 c10 -28 46 -46 67 -34 22 14 -6 51 -42 57 -35 5 -35 5
-25 -23z m48 -8 c0 -5 -4 -10 -10 -10 -5 0 -10 5 -10 10 0 6 5 10 10 10 6 0
10 -4 10 -10z"/>
<path d="M5413 4565 c-25 -10 -33 -20 -33 -39 0 -30 36 -54 53 -37 8 8 5 11
-11 11 -15 0 -22 6 -22 18 0 41 56 59 62 20 5 -38 28 -33 28 6 0 31 -3 36 -22
36 -13 -1 -38 -7 -55 -15z"/>
<path d="M5002 4545 c0 -16 2 -22 5 -12 2 9 2 23 0 30 -3 6 -5 -1 -5 -18z"/>
<path d="M5140 4545 c0 -40 21 -125 31 -125 5 0 6 18 3 41 l-7 41 39 -3 c63
-4 115 17 85 36 -5 3 -16 -2 -25 -11 -21 -21 -52 -10 -60 21 -5 20 -13 25 -36
25 -25 0 -30 -4 -30 -25z m45 -28 c-20 -11 -27 -5 -19 17 5 13 9 14 21 5 12
-11 12 -14 -2 -22z"/>
<path d="M5323 4475 c2 -68 15 -72 26 -8 5 29 3 42 -10 55 -16 15 -17 12 -16
-47z"/>
<path d="M5011 4484 c0 -11 3 -14 6 -6 3 7 2 16 -1 19 -3 4 -6 -2 -5 -13z"/>
<path d="M4940 4441 c0 -17 4 -32 8 -35 4 -2 6 11 4 30 -5 42 -12 45 -12 5z"/>
<path d="M5245 4460 c3 -5 17 -10 31 -10 13 0 24 5 24 10 0 6 -14 10 -31 10
-17 0 -28 -4 -24 -10z"/>
<path d="M5022 4430 c0 -14 2 -19 5 -12 2 6 2 18 0 25 -3 6 -5 1 -5 -13z"/>
<path d="M5032 4370 c0 -19 2 -27 5 -17 2 9 2 25 0 35 -3 9 -5 1 -5 -18z"/>
<path d="M5042 4290 c0 -14 2 -19 5 -12 2 6 2 18 0 25 -3 6 -5 1 -5 -13z"/>
<path d="M5051 4234 c0 -11 3 -14 6 -6 3 7 2 16 -1 19 -3 4 -6 -2 -5 -13z"/>
<path d="M4982 4170 c0 -14 2 -19 5 -12 2 6 2 18 0 25 -3 6 -5 1 -5 -13z"/>
<path d="M4992 4120 c0 -14 2 -19 5 -12 2 6 2 18 0 25 -3 6 -5 1 -5 -13z"/>
<path d="M5071 4104 c0 -11 3 -14 6 -6 3 7 2 16 -1 19 -3 4 -6 -2 -5 -13z"/>
<path d="M5001 4074 c0 -11 3 -14 6 -6 3 7 2 16 -1 19 -3 4 -6 -2 -5 -13z"/>
<path d="M5081 4034 c0 -11 3 -14 6 -6 3 7 2 16 -1 19 -3 4 -6 -2 -5 -13z"/>
<path d="M3810 3370 c0 -5 5 -10 11 -10 5 0 7 5 4 10 -3 6 -8 10 -11 10 -2 0
-4 -4 -4 -10z"/>
<path d="M3848 3363 c6 -2 18 -2 25 0 6 3 1 5 -13 5 -14 0 -19 -2 -12 -5z"/>
<path d="M3872 3320 c0 -14 2 -19 5 -12 2 6 2 18 0 25 -3 6 -5 1 -5 -13z"/>
<path d="M3790 3310 c0 -5 5 -10 10 -10 6 0 10 5 10 10 0 6 -4 10 -10 10 -5 0
-10 -4 -10 -10z"/>
<path d="M3810 3221 c0 -25 6 -27 13 -6 4 8 2 17 -3 20 -6 4 -10 -3 -10 -14z"/>
<path d="M3770 3190 c0 -5 7 -10 15 -10 8 0 15 5 15 10 0 6 -7 10 -15 10 -8 0
-15 -4 -15 -10z"/>
<path d="M3848 3193 c7 -3 16 -2 19 1 4 3 -2 6 -13 5 -11 0 -14 -3 -6 -6z"/>
<path d="M3810 3176 c0 -4 7 -14 15 -22 8 -9 15 -11 15 -6 0 5 -7 15 -15 22
-8 7 -15 9 -15 6z"/>
<path d="M3745 3120 c-3 -6 1 -7 9 -4 18 7 21 14 7 14 -6 0 -13 -4 -16 -10z"/>
<path d="M3731 3044 c0 -11 3 -14 6 -6 3 7 2 16 -1 19 -3 4 -6 -2 -5 -13z"/>
<path d="M3802 2964 c-14 -16 -5 -18 17 -5 7 5 9 11 5 14 -5 3 -15 -1 -22 -9z"/>
<path d="M3730 2950 c0 -5 5 -10 10 -10 6 0 10 5 10 10 0 6 -4 10 -10 10 -5 0
-10 -4 -10 -10z"/>
<path d="M3710 2890 c0 -5 5 -10 11 -10 5 0 7 5 4 10 -3 6 -8 10 -11 10 -2 0
-4 -4 -4 -10z"/>
<path d="M3798 2893 c7 -3 16 -2 19 1 4 3 -2 6 -13 5 -11 0 -14 -3 -6 -6z"/>
<path d="M3846 2883 c-6 -14 -5 -15 5 -6 7 7 10 15 7 18 -3 3 -9 -2 -12 -12z"/>
<path d="M3750 2853 c0 -13 5 -23 10 -23 13 0 13 11 0 30 -8 12 -10 11 -10 -7z"/>
<path d="M3706 2833 c-6 -14 -5 -15 5 -6 7 7 10 15 7 18 -3 3 -9 -2 -12 -12z"/>
<path d="M3730 2811 c0 -5 -12 -12 -27 -14 -27 -4 -26 -4 4 -6 32 -1 52 13 33
24 -5 3 -10 2 -10 -4z"/>
<path d="M3695 2768 c-4 -10 -11 -15 -16 -12 -5 3 -9 0 -9 -6 0 -6 14 -16 30
-21 17 -6 30 -15 30 -20 0 -6 11 -2 24 8 13 10 22 22 19 27 -3 5 -10 1 -15 -8
-11 -20 -32 -21 -24 -1 3 8 9 22 12 30 3 8 2 15 -4 15 -5 0 -13 -10 -17 -22
l-7 -23 -8 25 c-6 22 -8 23 -15 8z"/>
<path d="M3751 2691 c-8 -6 -9 -11 -3 -15 6 -3 14 -1 17 5 9 14 2 20 -14 10z"/>
<path d="M3790 2680 c-8 -5 -10 -10 -5 -10 6 0 17 5 25 10 8 5 11 10 5 10 -5
0 -17 -5 -25 -10z"/>
<path d="M3818 2633 c7 -3 16 -2 19 1 4 3 -2 6 -13 5 -11 0 -14 -3 -6 -6z"/>
<path d="M3710 2590 c0 -5 5 -10 10 -10 6 0 10 5 10 10 0 6 -4 10 -10 10 -5 0
-10 -4 -10 -10z"/>
<path d="M3790 2580 c0 -5 4 -10 9 -10 5 0 17 -7 25 -16 11 -10 16 -11 16 -3
0 12 -29 38 -42 39 -5 0 -8 -4 -8 -10z"/>
<path d="M3643 2550 c0 -16 4 -30 9 -30 4 0 8 7 8 16 0 9 8 23 18 30 15 12 15
13 -9 14 -22 0 -26 -4 -26 -30z"/>
<path d="M3710 2562 c-22 -11 -35 -24 -35 -37 -1 -11 -6 -19 -12 -18 -6 1 -13
-7 -16 -18 -4 -16 -3 -18 8 -9 8 7 18 9 23 6 5 -3 8 8 6 24 -3 21 1 30 10 30
8 0 16 4 18 9 6 17 46 22 51 6 4 -12 5 -12 3 1 -2 25 -16 26 -56 6z"/>
<path d="M3842 2510 c0 -14 2 -19 5 -12 2 6 2 18 0 25 -3 6 -5 1 -5 -13z"/>
<path d="M3718 2513 c7 -3 16 -2 19 1 4 3 -2 6 -13 5 -11 0 -14 -3 -6 -6z"/>
<path d="M3670 2454 c0 -8 5 -12 10 -9 6 4 8 11 5 16 -9 14 -15 11 -15 -7z"/>
<path d="M3635 2440 c3 -5 8 -10 11 -10 2 0 4 5 4 10 0 6 -5 10 -11 10 -5 0
-7 -4 -4 -10z"/>
<path d="M3761 2424 c0 -11 3 -14 6 -6 3 7 2 16 -1 19 -3 4 -6 -2 -5 -13z"/>
<path d="M3656 2415 c-11 -8 -15 -15 -9 -15 6 0 16 7 23 15 16 19 11 19 -14 0z"/>
<path d="M3851 2414 c0 -11 3 -14 6 -6 3 7 2 16 -1 19 -3 4 -6 -2 -5 -13z"/>
<path d="M3670 2393 c-10 -12 -11 -18 -2 -21 7 -2 12 -12 12 -23 0 -16 -7 -19
-40 -19 -22 0 -40 -4 -40 -8 0 -8 109 -7 118 2 3 3 -2 6 -11 6 -16 0 -22 20
-18 63 3 21 0 21 -19 0z"/>
<path d="M3610 2380 c0 -5 5 -10 10 -10 6 0 10 5 10 10 0 6 -4 10 -10 10 -5 0
-10 -4 -10 -10z"/>
<path d="M3650 2300 c0 -5 5 -10 10 -10 6 0 10 5 10 10 0 6 -4 10 -10 10 -5 0
-10 -4 -10 -10z"/>
<path d="M3605 2290 c-10 -16 -15 -90 -6 -90 5 0 8 10 8 23 1 46 3 57 13 57 6
0 10 -7 10 -15 0 -8 5 -15 11 -15 5 0 7 -4 4 -10 -3 -5 -2 -10 4 -10 5 0 13 5
16 10 3 6 1 10 -4 10 -6 0 -11 5 -11 11 0 11 -24 39 -34 39 -3 0 -8 -5 -11
-10z"/>
<path d="M3810 2296 c0 -2 9 -6 20 -9 11 -3 18 -1 14 4 -5 9 -34 13 -34 5z"/>
<path d="M3757 2279 c7 -7 15 -10 18 -7 3 3 -2 9 -12 12 -14 6 -15 5 -6 -5z"/>
<path d="M3670 2272 c0 -18 27 -44 41 -39 10 4 9 6 -4 6 -10 1 -16 4 -14 9 3
4 -1 13 -9 20 -8 7 -14 9 -14 4z"/>
<path d="M3695 2200 c3 -5 8 -10 11 -10 2 0 4 5 4 10 0 6 -5 10 -11 10 -5 0
-7 -4 -4 -10z"/>
<path d="M3607 2178 c7 -8 10 -18 6 -22 -4 -4 -3 -10 2 -14 6 -4 17 -20 25
-36 8 -16 21 -31 28 -32 7 -1 8 0 2 3 -8 3 -7 9 1 19 9 11 8 14 -5 14 -9 0
-16 6 -16 14 0 15 24 39 31 31 3 -2 5 6 6 18 0 12 -1 16 -4 9 -4 -10 -8 -10
-20 0 -12 10 -14 9 -13 -3 4 -24 0 -39 -9 -39 -5 0 -11 10 -13 22 -2 12 -10
24 -18 26 -12 4 -13 3 -3 -10z"/>
<path d="M3725 2181 c-2 -5 4 -11 15 -14 11 -3 20 -2 20 3 0 12 -28 21 -35 11z"/>
<path d="M3710 2110 c0 -5 5 -10 10 -10 6 0 10 5 10 10 0 6 -4 10 -10 10 -5 0
-10 -4 -10 -10z"/>
<path d="M3740 2024 c0 -14 38 -29 47 -20 4 3 -1 6 -10 6 -20 0 -23 16 -4 23
6 3 2 4 -10 4 -13 -1 -23 -7 -23 -13z"/>
<path d="M3728 1973 c7 -3 16 -2 19 1 4 3 -2 6 -13 5 -11 0 -14 -3 -6 -6z"/>
<path d="M3812 1890 c0 -14 2 -19 5 -12 2 6 2 18 0 25 -3 6 -5 1 -5 -13z"/>
<path d="M4694 3135 c0 -104 2 -146 3 -92 2 54 2 139 0 190 -1 51 -3 7 -3 -98z"/>
<path d="M4703 2725 c0 -44 2 -61 4 -37 2 23 2 59 0 80 -2 20 -4 1 -4 -43z"/>
<path d="M4701 2433 c-1 -117 2 -213 7 -213 7 0 5 394 -3 415 -2 6 -4 -86 -4
-202z"/>
<path d="M5721 2104 c0 -11 3 -14 6 -6 3 7 2 16 -1 19 -3 4 -6 -2 -5 -13z"/>
<path d="M5742 2030 c0 -14 2 -19 5 -12 2 6 2 18 0 25 -3 6 -5 1 -5 -13z"/>
<path d="M5805 1990 c4 -6 11 -8 16 -5 14 9 11 15 -7 15 -8 0 -12 -5 -9 -10z"/>
<path d="M5840 1960 c0 -18 41 -51 59 -48 8 2 16 9 19 16 2 8 -2 10 -14 5 -14
-5 -16 -2 -11 16 4 18 3 20 -9 10 -11 -9 -17 -9 -29 1 -12 10 -15 10 -15 0z"/>
<path d="M5722 1916 c0 -11 2 -16 6 -10 4 6 14 13 22 16 11 3 9 6 -6 10 -15 4
-20 0 -22 -16z"/>
<path d="M5765 1910 c-3 -5 -1 -10 4 -10 6 0 11 5 11 10 0 6 -2 10 -4 10 -3 0
-8 -4 -11 -10z"/>
<path d="M5740 1874 c0 -8 5 -12 10 -9 6 3 10 10 10 16 0 5 -4 9 -10 9 -5 0
-10 -7 -10 -16z"/>
<path d="M5806 1875 c4 -8 11 -15 16 -15 6 0 5 6 -2 15 -7 8 -14 15 -16 15 -2
0 -1 -7 2 -15z"/>
<path d="M5856 1883 c-11 -11 -6 -23 9 -23 8 0 15 4 15 9 0 13 -16 22 -24 14z"/>
<path d="M5770 1870 c0 -5 5 -10 10 -10 6 0 10 5 10 10 0 6 -4 10 -10 10 -5 0
-10 -4 -10 -10z"/>
<path d="M5917 1848 c-4 -16 -12 -28 -17 -28 -6 0 -10 -7 -10 -15 0 -25 17
-17 24 11 7 25 8 26 26 9 18 -16 20 -17 20 -2 0 10 -6 17 -14 17 -8 0 -16 8
-18 18 -3 12 -6 9 -11 -10z"/>
<path d="M5748 1813 c3 -20 10 -33 18 -33 8 0 14 -4 14 -10 0 -16 27 -12 34 5
4 11 -1 15 -19 15 -28 0 -45 37 -24 51 10 6 8 8 -6 7 -17 -2 -20 -8 -17 -35z"/>
<path d="M5796 1836 c3 -9 11 -16 16 -16 13 0 5 23 -10 28 -7 2 -10 -2 -6 -12z"/>
<path d="M5880 1840 c-9 -6 -10 -10 -3 -10 6 0 15 5 18 10 8 12 4 12 -15 0z"/>
<path d="M5850 1795 c0 -8 5 -15 10 -15 6 0 10 7 10 15 0 8 -4 15 -10 15 -5 0
-10 -7 -10 -15z"/>
<path d="M5886 1695 c-3 -9 0 -15 9 -15 8 0 15 7 15 15 0 8 -4 15 -9 15 -5 0
-11 -7 -15 -15z"/>
<path d="M6056 1695 c-3 -9 0 -15 9 -15 8 0 15 7 15 15 0 8 -4 15 -9 15 -5 0
-11 -7 -15 -15z"/>
<path d="M4738 713 c7 -3 16 -2 19 1 4 3 -2 6 -13 5 -11 0 -14 -3 -6 -6z"/>
<path d="M4768 693 c7 -3 16 -2 19 1 4 3 -2 6 -13 5 -11 0 -14 -3 -6 -6z"/>
<path d="M4768 643 c6 -2 18 -2 25 0 6 3 1 5 -13 5 -14 0 -19 -2 -12 -5z"/>
<path d="M3640 9204 c-18 -30 -31 -57 -28 -59 2 -2 18 23 36 56 18 32 31 59
28 59 -2 0 -19 -25 -36 -56z"/>
<path d="M3071 7074 c0 -11 3 -14 6 -6 3 7 2 16 -1 19 -3 4 -6 -2 -5 -13z"/>
<path d="M1480 5651 c0 -9 9 -22 20 -28 16 -11 18 -10 14 1 -4 9 2 16 16 18
17 2 14 5 -14 14 -31 9 -36 9 -36 -5z"/>
<path d="M7621 5554 c0 -11 3 -14 6 -6 3 7 2 16 -1 19 -3 4 -6 -2 -5 -13z"/>
<path d="M7610 5495 c0 -8 2 -15 4 -15 2 0 6 7 10 15 3 8 1 15 -4 15 -6 0 -10
-7 -10 -15z"/>
<path d="M7670 5421 c0 -6 4 -13 10 -16 6 -3 7 1 4 9 -7 18 -14 21 -14 7z"/>
<path d="M9153 5413 c-3 -10 -8 -21 -10 -25 -2 -4 2 -5 9 -3 8 3 14 14 14 25
0 25 -5 25 -13 3z"/>
<path d="M8070 5150 c0 -5 5 -10 11 -10 5 0 7 5 4 10 -3 6 -8 10 -11 10 -2 0
-4 -4 -4 -10z"/>
<path d="M7725 4770 c-3 -6 1 -7 9 -4 18 7 21 14 7 14 -6 0 -13 -4 -16 -10z"/>
<path d="M8053 4725 c0 -22 2 -30 4 -17 2 12 2 30 0 40 -3 9 -5 -1 -4 -23z"/>
<path d="M8190 4721 c0 -22 5 -43 10 -46 6 -4 10 10 10 34 0 22 -4 43 -10 46
-6 4 -10 -10 -10 -34z"/>
<path d="M7870 4728 c0 -15 5 -30 10 -33 13 -8 13 25 0 45 -8 12 -10 9 -10
-12z"/>
<path d="M8606 4735 c-9 -24 -7 -45 3 -45 12 0 22 43 12 53 -5 5 -11 1 -15 -8z"/>
<path d="M8921 4723 c6 -16 8 -54 5 -88 l-6 -60 24 49 c20 39 22 53 14 72 -6
13 -15 24 -20 24 -4 0 -8 7 -8 15 0 8 -4 15 -10 15 -6 0 -6 -10 1 -27z"/>
<path d="M8356 4700 c4 -25 10 -49 14 -53 4 -4 4 13 0 38 -4 25 -10 48 -14 52
-4 4 -4 -13 0 -37z"/>
<path d="M8536 4705 c4 -8 8 -15 10 -15 2 0 4 7 4 15 0 8 -4 15 -10 15 -5 0
-7 -7 -4 -15z"/>
<path d="M8705 4695 c0 -13 3 -21 8 -18 4 2 7 10 7 18 0 8 -3 16 -7 18 -5 3
-8 -5 -8 -18z"/>
<path d="M8842 4703 c4 -24 23 -27 25 -3 1 12 -4 20 -13 20 -9 0 -14 -7 -12
-17z"/>
<path d="M9016 4708 c3 -5 10 -6 15 -3 13 9 11 12 -6 12 -8 0 -12 -4 -9 -9z"/>
<path d="M7792 4701 c-8 -5 -12 -16 -10 -24 2 -11 7 -14 16 -8 8 5 12 16 10
24 -2 11 -7 14 -16 8z"/>
<path d="M8277 4703 c-13 -13 -7 -71 8 -77 12 -4 15 4 15 39 0 42 -7 54 -23
38z"/>
<path d="M8453 4690 c1 -11 4 -20 8 -20 10 0 19 27 12 34 -12 12 -22 5 -20
-14z"/>
<path d="M8531 4668 c-1 -9 -11 -24 -23 -33 l-23 -17 25 7 c34 10 39 17 30 40
-7 16 -9 17 -9 3z"/>
<path d="M8610 4660 c0 -11 4 -20 9 -20 5 0 7 9 4 20 -3 11 -7 20 -9 20 -2 0
-4 -9 -4 -20z"/>
<path d="M8760 4645 l-24 -25 32 6 c21 4 32 3 32 -5 0 -6 8 -11 17 -11 15 0
15 1 1 13 -8 6 -20 20 -25 30 -8 16 -11 15 -33 -8z"/>
<path d="M8190 4635 c-10 -13 -9 -15 9 -15 12 0 21 6 21 15 0 8 -4 15 -9 15
-5 0 -14 -7 -21 -15z"/>
<path d="M8973 4635 c-7 -8 -13 -19 -13 -25 0 -5 -5 -10 -11 -10 -5 0 -7 -5
-3 -11 6 -11 54 35 54 53 0 12 -13 9 -27 -7z"/>
<path d="M8390 4630 c0 -5 5 -10 11 -10 5 0 7 5 4 10 -3 6 -8 10 -11 10 -2 0
-4 -4 -4 -10z"/>
<path d="M8845 4610 c3 -5 8 -10 11 -10 2 0 4 5 4 10 0 6 -5 10 -11 10 -5 0
-7 -4 -4 -10z"/>
</g>
</svg>
